<svg width="2279" height="2050" viewBox="0 0 2279 2050" fill="none" xmlns="http://www.w3.org/2000/svg">
<g id="Downstairs" clip-path="url(#clip0_1005_24479)">
<rect width="3500" height="2500" transform="translate(-352 -219)" fill="white"/>
<g id="room">
<g id="labels-baseboard">
<rect x="498.669" y="1249.67" width="878.661" height="551.661" fill="white"/>
<rect x="498.669" y="1249.67" width="878.661" height="551.661" stroke="#444444" stroke-width="16.661"/>
</g>
</g>
<g id="room_2">
<g id="labels-baseboard_2">
<rect x="8.3305" y="-8.3305" width="309.661" height="332.661" transform="matrix(-1 0 0 1 1693.66 1477)" fill="white"/>
<rect x="8.3305" y="-8.3305" width="309.661" height="332.661" transform="matrix(-1 0 0 1 1693.66 1477)" stroke="#444444" stroke-width="16.661"/>
</g>
</g>
<g id="room_3">
<g id="labels-baseboard_3">
<rect x="8.3305" y="-8.3305" width="271.661" height="332.661" transform="matrix(-1 0 0 1 1968.66 1477)" fill="white"/>
<rect x="8.3305" y="-8.3305" width="271.661" height="332.661" transform="matrix(-1 0 0 1 1968.66 1477)" stroke="#444444" stroke-width="16.661"/>
</g>
</g>
<g id="room_4">
<g id="labels-baseboard_4">
<rect x="1376.36" y="1267.36" width="583.272" height="211.272" fill="white"/>
<rect x="1376.36" y="1267.36" width="583.272" height="211.272" stroke="#444444" stroke-width="15.2725"/>
</g>
</g>
<g id="floor-plan/door">
<g id="door-template">
<g id="door-wall-thickness">
<g id="glass-type">
<rect id="background" width="90" height="17" transform="matrix(0 1 1 0 1369 1303)" fill="white"/>
</g>
<rect id="door" x="0.5" y="0.5" width="89" height="16" transform="matrix(0 1 1 0 1369 1303)" stroke="black" stroke-dasharray="4 16"/>
<rect id="left" width="1" height="17" transform="matrix(0 1 1 0 1369 1303)" fill="black"/>
<rect id="right" width="1" height="17" transform="matrix(0 1 1 0 1369 1392)" fill="black"/>
</g>
<g id="left_2">
<g id=".templates/base/door" clip-path="url(#clip1_1005_24479)">
<g id="Ellipse 1">
<mask id="path-9-outside-1_1005_24479" maskUnits="userSpaceOnUse" x="1279.02" y="1301.98" width="91" height="91" fill="black">
<rect fill="white" x="1279.02" y="1301.98" width="91" height="91"/>
<path d="M1369 1391.98C1357.32 1391.98 1345.75 1389.68 1334.95 1385.2C1324.15 1380.73 1314.35 1374.18 1306.08 1365.92C1297.82 1357.65 1291.27 1347.85 1286.8 1337.05C1282.32 1326.25 1280.02 1314.68 1280.02 1303L1369 1303L1369 1391.98Z"/>
</mask>
<path d="M1369 1391.98C1357.32 1391.98 1345.75 1389.68 1334.95 1385.2C1324.15 1380.73 1314.35 1374.18 1306.08 1365.92C1297.82 1357.65 1291.27 1347.85 1286.8 1337.05C1282.32 1326.25 1280.02 1314.68 1280.02 1303L1369 1303L1369 1391.98Z" fill="white"/>
<path d="M1369 1391.98C1357.32 1391.98 1345.75 1389.68 1334.95 1385.2C1324.15 1380.73 1314.35 1374.18 1306.08 1365.92C1297.82 1357.65 1291.27 1347.85 1286.8 1337.05C1282.32 1326.25 1280.02 1314.68 1280.02 1303L1369 1303L1369 1391.98Z" stroke="black" stroke-width="2" mask="url(#path-9-outside-1_1005_24479)"/>
</g>
</g>
<rect id="Rectangle 2" width="1" height="90" transform="matrix(0 1 1 0 1279 1303)" fill="black"/>
</g>
</g>
</g>
<g id="floor-plan/door_2">
<g id="door-template_2">
<g id="door-wall-thickness_2">
<g id="glass-type_2">
<rect id="background_2" width="90" height="17" transform="matrix(1 0 0 -1 1848 1489)" fill="white"/>
</g>
<rect id="door_2" x="0.5" y="-0.5" width="89" height="16" transform="matrix(1 0 0 -1 1848 1488)" stroke="black" stroke-dasharray="4 16"/>
<rect id="left_3" width="1" height="17" transform="matrix(1 0 0 -1 1848 1489)" fill="black"/>
<rect id="right_2" width="1" height="17" transform="matrix(1 0 0 -1 1937 1489)" fill="black"/>
</g>
<g id="left_4">
<g id=".templates/base/door_2" clip-path="url(#clip2_1005_24479)">
<g id="Ellipse 1_2">
<mask id="path-15-outside-2_1005_24479" maskUnits="userSpaceOnUse" x="1846.98" y="1487.98" width="91" height="91" fill="black">
<rect fill="white" x="1846.98" y="1487.98" width="91" height="91"/>
<path d="M1936.98 1489C1936.98 1500.68 1934.68 1512.25 1930.2 1523.05C1925.73 1533.85 1919.18 1543.65 1910.92 1551.92C1902.65 1560.18 1892.85 1566.73 1882.05 1571.2C1871.25 1575.68 1859.68 1577.98 1848 1577.98L1848 1489L1936.98 1489Z"/>
</mask>
<path d="M1936.98 1489C1936.98 1500.68 1934.68 1512.25 1930.2 1523.05C1925.73 1533.85 1919.18 1543.65 1910.92 1551.92C1902.65 1560.18 1892.85 1566.73 1882.05 1571.2C1871.25 1575.68 1859.68 1577.98 1848 1577.98L1848 1489L1936.98 1489Z" fill="white"/>
<path d="M1936.98 1489C1936.98 1500.68 1934.68 1512.25 1930.2 1523.05C1925.73 1533.85 1919.18 1543.65 1910.92 1551.92C1902.65 1560.18 1892.85 1566.73 1882.05 1571.2C1871.25 1575.68 1859.68 1577.98 1848 1577.98L1848 1489L1936.98 1489Z" stroke="black" stroke-width="2" mask="url(#path-15-outside-2_1005_24479)"/>
</g>
</g>
<rect id="Rectangle 2_2" width="1" height="90" transform="matrix(1 0 0 -1 1848 1579)" fill="black"/>
</g>
</g>
</g>
<g id="room_5">
<g id="labels-baseboard_5">
<rect x="498.5" y="260.5" width="1187" height="1006" fill="white"/>
<rect x="498.5" y="260.5" width="1187" height="1006" stroke="#444444" stroke-width="17"/>
</g>
</g>
<g id=".templates/floor-plan/steps-template" clip-path="url(#clip3_1005_24479)">
<g id="stairs-top-bottom">
<g id="step">
<rect x="1493.8" y="408.798" width="182.405" height="28.185" fill="white"/>
<rect x="1493.8" y="408.798" width="182.405" height="28.185" stroke="black" stroke-width="0.531792"/>
</g>
<g id="step_2">
<rect x="1493.8" y="437.514" width="182.405" height="28.185" fill="white"/>
<rect x="1493.8" y="437.514" width="182.405" height="28.185" stroke="black" stroke-width="0.531792"/>
</g>
<g id="step_3">
<rect x="1493.8" y="466.231" width="182.405" height="28.185" fill="white"/>
<rect x="1493.8" y="466.231" width="182.405" height="28.185" stroke="black" stroke-width="0.531792"/>
</g>
<g id="step_4">
<rect x="1493.8" y="494.948" width="182.405" height="28.185" fill="white"/>
<rect x="1493.8" y="494.948" width="182.405" height="28.185" stroke="black" stroke-width="0.531792"/>
</g>
<g id="step_5">
<rect x="1493.8" y="523.665" width="182.405" height="28.185" fill="white"/>
<rect x="1493.8" y="523.665" width="182.405" height="28.185" stroke="black" stroke-width="0.531792"/>
</g>
<g id="step_6">
<rect x="1493.8" y="552.381" width="182.405" height="28.185" fill="white"/>
<rect x="1493.8" y="552.381" width="182.405" height="28.185" stroke="black" stroke-width="0.531792"/>
</g>
<g id="step_7">
<rect x="1493.8" y="581.098" width="182.405" height="28.185" fill="white"/>
<rect x="1493.8" y="581.098" width="182.405" height="28.185" stroke="black" stroke-width="0.531792"/>
</g>
<g id="step_8">
<rect x="1493.8" y="609.815" width="182.405" height="28.185" fill="white"/>
<rect x="1493.8" y="609.815" width="182.405" height="28.185" stroke="black" stroke-width="0.531792"/>
</g>
<g id="step_9">
<rect x="1493.8" y="638.532" width="182.405" height="28.185" fill="white"/>
<rect x="1493.8" y="638.532" width="182.405" height="28.185" stroke="black" stroke-width="0.531792"/>
</g>
<g id="step_10">
<rect x="1493.8" y="667.249" width="182.405" height="28.185" fill="white"/>
<rect x="1493.8" y="667.249" width="182.405" height="28.185" stroke="black" stroke-width="0.531792"/>
</g>
<g id="step_11">
<rect x="1493.8" y="695.965" width="182.405" height="28.185" fill="white"/>
<rect x="1493.8" y="695.965" width="182.405" height="28.185" stroke="black" stroke-width="0.531792"/>
</g>
<g id="step_12">
<rect x="1493.8" y="724.682" width="182.405" height="28.185" fill="white"/>
<rect x="1493.8" y="724.682" width="182.405" height="28.185" stroke="black" stroke-width="0.531792"/>
</g>
<g id="step_13">
<rect x="1493.8" y="753.399" width="182.405" height="28.185" fill="white"/>
<rect x="1493.8" y="753.399" width="182.405" height="28.185" stroke="black" stroke-width="0.531792"/>
</g>
<g id="step_14">
<rect x="1493.8" y="782.116" width="182.405" height="28.185" fill="white"/>
<rect x="1493.8" y="782.116" width="182.405" height="28.185" stroke="black" stroke-width="0.531792"/>
</g>
<g id="step_15">
<rect x="1493.8" y="810.832" width="182.405" height="28.185" fill="white"/>
<rect x="1493.8" y="810.832" width="182.405" height="28.185" stroke="black" stroke-width="0.531792"/>
</g>
<g id="step_16">
<rect x="1493.8" y="839.549" width="182.405" height="28.185" fill="white"/>
<rect x="1493.8" y="839.549" width="182.405" height="28.185" stroke="black" stroke-width="0.531792"/>
</g>
<g id="step_17">
<rect x="1493.8" y="868.266" width="182.405" height="28.185" fill="white"/>
<rect x="1493.8" y="868.266" width="182.405" height="28.185" stroke="black" stroke-width="0.531792"/>
</g>
<g id="step_18">
<rect x="1493.8" y="896.983" width="182.405" height="28.185" fill="white"/>
<rect x="1493.8" y="896.983" width="182.405" height="28.185" stroke="black" stroke-width="0.531792"/>
</g>
<g id="step_19">
<rect x="1493.8" y="925.699" width="182.405" height="28.185" fill="white"/>
<rect x="1493.8" y="925.699" width="182.405" height="28.185" stroke="black" stroke-width="0.531792"/>
</g>
<g id="step_20">
<rect x="1493.8" y="954.416" width="182.405" height="28.185" fill="white"/>
<rect x="1493.8" y="954.416" width="182.405" height="28.185" stroke="black" stroke-width="0.531792"/>
</g>
</g>
<g id="step-top">
<rect x="1493.66" y="408.133" width="182.671" height="0.265896" fill="white"/>
<rect x="1493.66" y="408.133" width="182.671" height="0.265896" stroke="black" stroke-width="0.265896"/>
</g>
<g id="step-bottom">
<rect x="1493.66" y="1049.6" width="182.671" height="0.265896" fill="white"/>
<rect x="1493.66" y="1049.6" width="182.671" height="0.265896" stroke="black" stroke-width="0.265896"/>
</g>
<g id="step-left">
<rect x="1493.13" y="408.133" width="0.265896" height="641.734" fill="white"/>
<rect x="1493.13" y="408.133" width="0.265896" height="641.734" stroke="black" stroke-width="0.265896"/>
</g>
<g id="step-right">
<rect x="1676.6" y="408.133" width="0.265896" height="641.734" fill="white"/>
<rect x="1676.6" y="408.133" width="0.265896" height="641.734" stroke="black" stroke-width="0.265896"/>
</g>
</g>
<g id=".templates/floor-plan/steps-template_2" clip-path="url(#clip4_1005_24479)">
<g id="stairs-top-bottom_2">
<g id="step_21">
<rect x="498.798" y="1990.2" width="182.405" height="28.185" transform="rotate(-90 498.798 1990.2)" fill="white"/>
<rect x="498.798" y="1990.2" width="182.405" height="28.185" transform="rotate(-90 498.798 1990.2)" stroke="black" stroke-width="0.531792"/>
</g>
<g id="step_22">
<rect x="527.514" y="1990.2" width="182.405" height="28.185" transform="rotate(-90 527.514 1990.2)" fill="white"/>
<rect x="527.514" y="1990.2" width="182.405" height="28.185" transform="rotate(-90 527.514 1990.2)" stroke="black" stroke-width="0.531792"/>
</g>
<g id="step_23">
<rect x="556.231" y="1990.2" width="182.405" height="28.185" transform="rotate(-90 556.231 1990.2)" fill="white"/>
<rect x="556.231" y="1990.2" width="182.405" height="28.185" transform="rotate(-90 556.231 1990.2)" stroke="black" stroke-width="0.531792"/>
</g>
<g id="step_24">
<rect x="584.948" y="1990.2" width="182.405" height="28.185" transform="rotate(-90 584.948 1990.2)" fill="white"/>
<rect x="584.948" y="1990.2" width="182.405" height="28.185" transform="rotate(-90 584.948 1990.2)" stroke="black" stroke-width="0.531792"/>
</g>
<g id="step_25">
<rect x="613.665" y="1990.2" width="182.405" height="28.185" transform="rotate(-90 613.665 1990.2)" fill="white"/>
<rect x="613.665" y="1990.2" width="182.405" height="28.185" transform="rotate(-90 613.665 1990.2)" stroke="black" stroke-width="0.531792"/>
</g>
<g id="step_26">
<rect x="642.381" y="1990.2" width="182.405" height="28.185" transform="rotate(-90 642.381 1990.2)" fill="white"/>
<rect x="642.381" y="1990.2" width="182.405" height="28.185" transform="rotate(-90 642.381 1990.2)" stroke="black" stroke-width="0.531792"/>
</g>
<g id="step_27">
<rect x="671.098" y="1990.2" width="182.405" height="28.185" transform="rotate(-90 671.098 1990.2)" fill="white"/>
<rect x="671.098" y="1990.2" width="182.405" height="28.185" transform="rotate(-90 671.098 1990.2)" stroke="black" stroke-width="0.531792"/>
</g>
<g id="step_28">
<rect x="699.815" y="1990.2" width="182.405" height="28.185" transform="rotate(-90 699.815 1990.2)" fill="white"/>
<rect x="699.815" y="1990.2" width="182.405" height="28.185" transform="rotate(-90 699.815 1990.2)" stroke="black" stroke-width="0.531792"/>
</g>
<g id="step_29">
<rect x="728.532" y="1990.2" width="182.405" height="28.185" transform="rotate(-90 728.532 1990.2)" fill="white"/>
<rect x="728.532" y="1990.2" width="182.405" height="28.185" transform="rotate(-90 728.532 1990.2)" stroke="black" stroke-width="0.531792"/>
</g>
<g id="step_30">
<rect x="757.249" y="1990.2" width="182.405" height="28.185" transform="rotate(-90 757.249 1990.2)" fill="white"/>
<rect x="757.249" y="1990.2" width="182.405" height="28.185" transform="rotate(-90 757.249 1990.2)" stroke="black" stroke-width="0.531792"/>
</g>
<g id="step_31">
<rect x="785.965" y="1990.2" width="182.405" height="28.185" transform="rotate(-90 785.965 1990.2)" fill="white"/>
<rect x="785.965" y="1990.2" width="182.405" height="28.185" transform="rotate(-90 785.965 1990.2)" stroke="black" stroke-width="0.531792"/>
</g>
<g id="step_32">
<rect x="814.682" y="1990.2" width="182.405" height="28.185" transform="rotate(-90 814.682 1990.2)" fill="white"/>
<rect x="814.682" y="1990.2" width="182.405" height="28.185" transform="rotate(-90 814.682 1990.2)" stroke="black" stroke-width="0.531792"/>
</g>
<g id="step_33">
<rect x="843.399" y="1990.2" width="182.405" height="28.185" transform="rotate(-90 843.399 1990.2)" fill="white"/>
<rect x="843.399" y="1990.2" width="182.405" height="28.185" transform="rotate(-90 843.399 1990.2)" stroke="black" stroke-width="0.531792"/>
</g>
<g id="step_34">
<rect x="872.116" y="1990.2" width="182.405" height="28.185" transform="rotate(-90 872.116 1990.2)" fill="white"/>
<rect x="872.116" y="1990.2" width="182.405" height="28.185" transform="rotate(-90 872.116 1990.2)" stroke="black" stroke-width="0.531792"/>
</g>
<g id="step_35">
<rect x="900.832" y="1990.2" width="182.405" height="28.185" transform="rotate(-90 900.832 1990.2)" fill="white"/>
<rect x="900.832" y="1990.2" width="182.405" height="28.185" transform="rotate(-90 900.832 1990.2)" stroke="black" stroke-width="0.531792"/>
</g>
<g id="step_36">
<rect x="929.549" y="1990.2" width="182.405" height="28.185" transform="rotate(-90 929.549 1990.2)" fill="white"/>
<rect x="929.549" y="1990.2" width="182.405" height="28.185" transform="rotate(-90 929.549 1990.2)" stroke="black" stroke-width="0.531792"/>
</g>
<g id="step_37">
<rect x="958.266" y="1990.2" width="182.405" height="28.185" transform="rotate(-90 958.266 1990.2)" fill="white"/>
<rect x="958.266" y="1990.2" width="182.405" height="28.185" transform="rotate(-90 958.266 1990.2)" stroke="black" stroke-width="0.531792"/>
</g>
<g id="step_38">
<rect x="986.983" y="1990.2" width="182.405" height="28.185" transform="rotate(-90 986.983 1990.2)" fill="white"/>
<rect x="986.983" y="1990.2" width="182.405" height="28.185" transform="rotate(-90 986.983 1990.2)" stroke="black" stroke-width="0.531792"/>
</g>
<g id="step_39">
<rect x="1015.7" y="1990.2" width="182.405" height="28.185" transform="rotate(-90 1015.7 1990.2)" fill="white"/>
<rect x="1015.7" y="1990.2" width="182.405" height="28.185" transform="rotate(-90 1015.7 1990.2)" stroke="black" stroke-width="0.531792"/>
</g>
<g id="step_40">
<rect x="1044.42" y="1990.2" width="182.405" height="28.185" transform="rotate(-90 1044.42 1990.2)" fill="white"/>
<rect x="1044.42" y="1990.2" width="182.405" height="28.185" transform="rotate(-90 1044.42 1990.2)" stroke="black" stroke-width="0.531792"/>
</g>
</g>
<g id="step-top_2">
<rect x="498.133" y="1990.34" width="182.671" height="0.265896" transform="rotate(-90 498.133 1990.34)" fill="white"/>
<rect x="498.133" y="1990.34" width="182.671" height="0.265896" transform="rotate(-90 498.133 1990.34)" stroke="black" stroke-width="0.265896"/>
</g>
<g id="step-bottom_2">
<rect x="1139.6" y="1990.34" width="182.671" height="0.265896" transform="rotate(-90 1139.6 1990.34)" fill="white"/>
<rect x="1139.6" y="1990.34" width="182.671" height="0.265896" transform="rotate(-90 1139.6 1990.34)" stroke="black" stroke-width="0.265896"/>
</g>
<g id="step-left_2">
<rect x="498.133" y="1990.87" width="0.265896" height="641.734" transform="rotate(-90 498.133 1990.87)" fill="white"/>
<rect x="498.133" y="1990.87" width="0.265896" height="641.734" transform="rotate(-90 498.133 1990.87)" stroke="black" stroke-width="0.265896"/>
</g>
<g id="step-right_2">
<rect x="498.133" y="1807.4" width="0.265896" height="641.734" transform="rotate(-90 498.133 1807.4)" fill="white"/>
<rect x="498.133" y="1807.4" width="0.265896" height="641.734" transform="rotate(-90 498.133 1807.4)" stroke="black" stroke-width="0.265896"/>
</g>
</g>
<g id=".templates/floor-plan/arrow-top">
<g id="arrow-top" clip-path="url(#clip5_1005_24479)">
<g id="arrow">
<mask maskUnits="userSpaceOnUse" x="0" y="0" width="0" height="0" fill="black">
<rect fill="white" width="0" height="0"/>
</mask>
<path d="M1586.38 377.25L1601.17 402.875H1571.58L1586.38 377.25ZM1586.38 490L1571.58 464.375H1601.17L1586.38 490ZM1588.94 400.312V466.938H1583.81V400.312H1588.94Z" fill="black" mask="url(#)"/>
</g>
</g>
</g>
<g id="laundry/washer">
<g id="doors-left">
<g id="Ellipse 1_3">
<mask id="path-68-inside-3_1005_24479" fill="white">
<path d="M1834.98 1610.3C1834.98 1603.13 1833.57 1596.03 1830.82 1589.4C1828.08 1582.77 1824.06 1576.75 1818.98 1571.68C1813.91 1566.61 1807.89 1562.59 1801.27 1559.84C1794.64 1557.1 1787.54 1555.69 1780.37 1555.69L1780.37 1610.3L1834.98 1610.3Z"/>
</mask>
<path d="M1834.98 1610.3C1834.98 1603.13 1833.57 1596.03 1830.82 1589.4C1828.08 1582.77 1824.06 1576.75 1818.98 1571.68C1813.91 1566.61 1807.89 1562.59 1801.27 1559.84C1794.64 1557.1 1787.54 1555.69 1780.37 1555.69L1780.37 1610.3L1834.98 1610.3Z" fill="white" fill-opacity="0.8" stroke="#D0D0D0" stroke-width="2.87356" mask="url(#path-68-inside-3_1005_24479)"/>
</g>
</g>
<g id="washer">
<rect x="1697.75" y="1625.39" width="84.7701" height="81.8966" rx="0.718391" transform="rotate(-90 1697.75 1625.39)" fill="white"/>
<path id="name" d="M1741.85 1603.31L1735.61 1601.36V1600.5L1736.85 1600.67L1743.2 1602.66V1603.49L1741.85 1603.31ZM1735.61 1604.62L1741.92 1602.96L1743.2 1602.84V1603.72L1735.61 1605.92V1604.62ZM1741.88 1598.64L1735.61 1597.05V1595.76L1743.2 1597.96V1598.83L1741.88 1598.64ZM1735.61 1600.31L1741.75 1598.41L1743.2 1598.19V1599.02L1736.84 1601.06L1735.61 1601.23V1600.31ZM1741.9 1589.95H1738C1737.7 1589.95 1737.44 1590.01 1737.22 1590.13C1736.99 1590.25 1736.82 1590.43 1736.7 1590.67C1736.58 1590.91 1736.52 1591.2 1736.52 1591.55C1736.52 1591.88 1736.57 1592.17 1736.68 1592.41C1736.8 1592.66 1736.94 1592.85 1737.13 1592.99C1737.31 1593.13 1737.5 1593.19 1737.71 1593.19V1594.49C1737.44 1594.49 1737.17 1594.42 1736.91 1594.28C1736.64 1594.14 1736.4 1593.94 1736.19 1593.68C1735.97 1593.41 1735.79 1593.09 1735.67 1592.72C1735.54 1592.35 1735.47 1591.93 1735.47 1591.47C1735.47 1590.92 1735.56 1590.44 1735.75 1590.02C1735.94 1589.59 1736.22 1589.26 1736.6 1589.02C1736.97 1588.78 1737.44 1588.65 1738.01 1588.65H1741.55C1741.8 1588.65 1742.07 1588.63 1742.35 1588.59C1742.64 1588.54 1742.88 1588.48 1743.09 1588.39H1743.2V1589.74C1743.05 1589.81 1742.85 1589.86 1742.6 1589.9C1742.35 1589.93 1742.12 1589.95 1741.9 1589.95ZM1738.6 1589.73L1739.51 1589.71V1591.03C1739.51 1591.4 1739.54 1591.72 1739.6 1592.01C1739.66 1592.3 1739.74 1592.55 1739.86 1592.74C1739.98 1592.94 1740.13 1593.09 1740.3 1593.19C1740.48 1593.3 1740.68 1593.35 1740.91 1593.35C1741.15 1593.35 1741.37 1593.29 1741.57 1593.19C1741.76 1593.08 1741.92 1592.92 1742.04 1592.7C1742.15 1592.48 1742.2 1592.21 1742.2 1591.9C1742.2 1591.5 1742.12 1591.15 1741.95 1590.84C1741.78 1590.54 1741.58 1590.3 1741.33 1590.12C1741.09 1589.94 1740.86 1589.84 1740.63 1589.83L1741.25 1589.27C1741.45 1589.3 1741.66 1589.39 1741.9 1589.54C1742.14 1589.68 1742.37 1589.88 1742.59 1590.12C1742.81 1590.36 1742.99 1590.64 1743.13 1590.98C1743.27 1591.3 1743.34 1591.67 1743.34 1592.09C1743.34 1592.6 1743.24 1593.05 1743.04 1593.44C1742.84 1593.82 1742.57 1594.12 1742.23 1594.34C1741.89 1594.55 1741.51 1594.65 1741.09 1594.65C1740.68 1594.65 1740.32 1594.57 1740.02 1594.41C1739.7 1594.26 1739.44 1594.03 1739.24 1593.73C1739.03 1593.43 1738.87 1593.07 1738.76 1592.65C1738.65 1592.23 1738.6 1591.76 1738.6 1591.24V1589.73ZM1741.19 1582.19C1741 1582.19 1740.83 1582.24 1740.67 1582.32C1740.5 1582.4 1740.36 1582.57 1740.23 1582.82C1740.09 1583.07 1739.97 1583.44 1739.88 1583.94C1739.79 1584.36 1739.68 1584.74 1739.56 1585.08C1739.44 1585.42 1739.29 1585.71 1739.12 1585.95C1738.94 1586.18 1738.74 1586.36 1738.51 1586.49C1738.27 1586.61 1738 1586.68 1737.69 1586.68C1737.39 1586.68 1737.1 1586.61 1736.84 1586.48C1736.57 1586.34 1736.34 1586.15 1736.13 1585.91C1735.92 1585.66 1735.76 1585.37 1735.65 1585.02C1735.53 1584.67 1735.47 1584.29 1735.47 1583.86C1735.47 1583.25 1735.58 1582.74 1735.79 1582.31C1736.01 1581.88 1736.3 1581.55 1736.66 1581.32C1737.01 1581.09 1737.41 1580.97 1737.84 1580.97V1582.27C1737.63 1582.27 1737.43 1582.33 1737.23 1582.46C1737.03 1582.58 1736.86 1582.76 1736.73 1583C1736.6 1583.23 1736.54 1583.52 1736.54 1583.86C1736.54 1584.22 1736.59 1584.52 1736.7 1584.74C1736.81 1584.96 1736.95 1585.12 1737.12 1585.22C1737.29 1585.32 1737.46 1585.37 1737.65 1585.37C1737.79 1585.37 1737.92 1585.35 1738.03 1585.3C1738.14 1585.25 1738.24 1585.16 1738.33 1585.03C1738.42 1584.91 1738.51 1584.73 1738.58 1584.5C1738.66 1584.27 1738.74 1583.98 1738.82 1583.62C1738.96 1583 1739.13 1582.49 1739.33 1582.09C1739.52 1581.69 1739.77 1581.39 1740.05 1581.19C1740.34 1580.99 1740.68 1580.9 1741.09 1580.9C1741.42 1580.9 1741.73 1580.97 1742 1581.11C1742.28 1581.24 1742.52 1581.44 1742.72 1581.7C1742.91 1581.96 1743.07 1582.27 1743.18 1582.63C1743.29 1582.98 1743.34 1583.38 1743.34 1583.83C1743.34 1584.5 1743.22 1585.06 1742.98 1585.53C1742.75 1585.99 1742.44 1586.34 1742.06 1586.58C1741.68 1586.82 1741.28 1586.94 1740.86 1586.94V1585.63C1741.21 1585.61 1741.5 1585.51 1741.71 1585.32C1741.91 1585.14 1742.06 1584.91 1742.15 1584.63C1742.23 1584.36 1742.27 1584.09 1742.27 1583.83C1742.27 1583.47 1742.23 1583.18 1742.13 1582.94C1742.04 1582.69 1741.91 1582.51 1741.75 1582.38C1741.59 1582.26 1741.4 1582.19 1741.19 1582.19ZM1732.43 1577.89H1743.2V1579.19H1732.43V1577.89ZM1739.12 1578.2L1739.1 1578.74C1738.58 1578.74 1738.1 1578.66 1737.66 1578.51C1737.21 1578.36 1736.83 1578.15 1736.5 1577.88C1736.17 1577.61 1735.92 1577.28 1735.74 1576.91C1735.56 1576.53 1735.47 1576.11 1735.47 1575.65C1735.47 1575.28 1735.52 1574.94 1735.62 1574.64C1735.72 1574.35 1735.88 1574.09 1736.1 1573.88C1736.32 1573.66 1736.61 1573.5 1736.96 1573.39C1737.3 1573.28 1737.73 1573.22 1738.23 1573.22H1743.2V1574.53H1738.21C1737.82 1574.53 1737.5 1574.58 1737.26 1574.7C1737.02 1574.82 1736.84 1574.99 1736.73 1575.21C1736.62 1575.44 1736.56 1575.71 1736.56 1576.04C1736.56 1576.36 1736.63 1576.66 1736.77 1576.92C1736.9 1577.19 1737.09 1577.41 1737.33 1577.61C1737.57 1577.79 1737.84 1577.94 1738.15 1578.05C1738.45 1578.15 1738.78 1578.2 1739.12 1578.2ZM1743.34 1568.13C1743.34 1568.66 1743.25 1569.13 1743.07 1569.57C1742.89 1569.99 1742.64 1570.36 1742.31 1570.67C1741.98 1570.97 1741.59 1571.2 1741.15 1571.37C1740.7 1571.53 1740.21 1571.61 1739.67 1571.61H1739.38C1738.76 1571.61 1738.21 1571.52 1737.73 1571.34C1737.24 1571.16 1736.83 1570.91 1736.49 1570.6C1736.16 1570.28 1735.9 1569.93 1735.73 1569.53C1735.56 1569.13 1735.47 1568.72 1735.47 1568.3C1735.47 1567.75 1735.56 1567.29 1735.75 1566.89C1735.94 1566.49 1736.2 1566.17 1736.54 1565.92C1736.87 1565.66 1737.26 1565.48 1737.71 1565.36C1738.16 1565.23 1738.65 1565.17 1739.19 1565.17H1739.77V1570.84H1738.71V1566.47H1738.61C1738.28 1566.49 1737.95 1566.56 1737.63 1566.68C1737.31 1566.8 1737.05 1566.99 1736.84 1567.24C1736.64 1567.5 1736.54 1567.85 1736.54 1568.3C1736.54 1568.59 1736.6 1568.86 1736.73 1569.11C1736.85 1569.36 1737.03 1569.57 1737.27 1569.75C1737.52 1569.93 1737.81 1570.06 1738.16 1570.16C1738.51 1570.26 1738.92 1570.31 1739.38 1570.31H1739.67C1740.03 1570.31 1740.37 1570.26 1740.69 1570.16C1741 1570.06 1741.28 1569.91 1741.52 1569.72C1741.76 1569.52 1741.94 1569.29 1742.08 1569.01C1742.21 1568.73 1742.28 1568.41 1742.28 1568.06C1742.28 1567.6 1742.19 1567.21 1742 1566.89C1741.81 1566.57 1741.56 1566.3 1741.25 1566.06L1741.88 1565.27C1742.12 1565.44 1742.36 1565.64 1742.58 1565.9C1742.81 1566.15 1742.99 1566.46 1743.13 1566.83C1743.27 1567.19 1743.34 1567.63 1743.34 1568.13ZM1736.8 1562.36H1743.2V1563.66H1735.61V1562.4L1736.8 1562.36ZM1735.57 1559.99L1736.77 1560C1736.75 1560.1 1736.74 1560.21 1736.73 1560.3C1736.72 1560.4 1736.72 1560.51 1736.72 1560.63C1736.72 1560.93 1736.77 1561.19 1736.86 1561.42C1736.95 1561.65 1737.08 1561.84 1737.25 1562C1737.42 1562.16 1737.62 1562.29 1737.86 1562.38C1738.08 1562.47 1738.34 1562.53 1738.61 1562.56L1738.82 1562.92C1738.37 1562.92 1737.93 1562.88 1737.53 1562.79C1737.13 1562.69 1736.77 1562.55 1736.47 1562.36C1736.15 1562.17 1735.91 1561.93 1735.74 1561.63C1735.56 1561.33 1735.47 1560.98 1735.47 1560.56C1735.47 1560.47 1735.48 1560.36 1735.51 1560.24C1735.52 1560.12 1735.54 1560.04 1735.57 1559.99Z" fill="black"/>
<rect x="1697.75" y="1625.39" width="84.7701" height="81.8966" rx="0.718391" transform="rotate(-90 1697.75 1625.39)" stroke="#444444" stroke-width="1.43678"/>
</g>
<g id="door_3">
<rect x="1781.09" y="1609.58" width="53.1609" height="4.31034" transform="rotate(-90 1781.09 1609.58)" fill="white"/>
<rect x="1781.09" y="1609.58" width="53.1609" height="4.31034" transform="rotate(-90 1781.09 1609.58)" stroke="#444444" stroke-width="1.43678"/>
</g>
</g>
<g id="laundry/dryer">
<g id="doors-left_2">
<g id="Ellipse 1_4">
<mask id="path-72-inside-4_1005_24479" fill="white">
<path d="M1854.02 1729C1854.02 1720.13 1852.27 1711.35 1848.88 1703.16C1845.49 1694.97 1840.51 1687.53 1834.24 1681.26C1827.97 1674.99 1820.53 1670.01 1812.34 1666.62C1804.15 1663.23 1795.37 1661.48 1786.5 1661.48L1786.5 1729L1854.02 1729Z"/>
</mask>
<path d="M1854.02 1729C1854.02 1720.13 1852.27 1711.35 1848.88 1703.16C1845.49 1694.97 1840.51 1687.53 1834.24 1681.26C1827.97 1674.99 1820.53 1670.01 1812.34 1666.62C1804.15 1663.23 1795.37 1661.48 1786.5 1661.48L1786.5 1729L1854.02 1729Z" fill="white" fill-opacity="0.8" stroke="#D0D0D0" stroke-width="3" mask="url(#path-72-inside-4_1005_24479)"/>
</g>
</g>
<g id="dryer">
<rect x="1697.25" y="1740.25" width="88.5" height="88.5" rx="0.75" transform="rotate(-90 1697.25 1740.25)" fill="white"/>
<path id="name_2" d="M1744.96 1706.83H1735.25V1705.47H1746.5V1706.72L1744.96 1706.83ZM1742.63 1712.16H1742.47C1741.87 1712.16 1741.32 1712.09 1740.82 1711.94C1740.33 1711.79 1739.9 1711.58 1739.54 1711.31C1739.19 1711.03 1738.91 1710.7 1738.72 1710.32C1738.53 1709.93 1738.43 1709.5 1738.43 1709.03C1738.43 1708.53 1738.52 1708.1 1738.69 1707.73C1738.86 1707.35 1739.11 1707.03 1739.45 1706.77C1739.77 1706.51 1740.17 1706.3 1740.63 1706.15C1741.1 1706 1741.62 1705.9 1742.21 1705.84H1742.88C1743.46 1705.89 1743.99 1706 1744.45 1706.15C1744.91 1706.3 1745.31 1706.51 1745.64 1706.77C1745.96 1707.03 1746.21 1707.35 1746.39 1707.73C1746.56 1708.1 1746.65 1708.54 1746.65 1709.04C1746.65 1709.51 1746.55 1709.93 1746.35 1710.32C1746.15 1710.7 1745.87 1711.03 1745.5 1711.31C1745.14 1711.58 1744.72 1711.79 1744.23 1711.94C1743.74 1712.09 1743.2 1712.16 1742.63 1712.16ZM1742.47 1710.8H1742.63C1743.02 1710.8 1743.39 1710.76 1743.74 1710.69C1744.09 1710.6 1744.39 1710.48 1744.65 1710.3C1744.92 1710.13 1745.13 1709.92 1745.28 1709.65C1745.42 1709.39 1745.5 1709.07 1745.5 1708.71C1745.5 1708.26 1745.4 1707.89 1745.21 1707.6C1745.02 1707.31 1744.77 1707.07 1744.46 1706.9C1744.14 1706.72 1743.8 1706.59 1743.44 1706.49H1741.67C1741.4 1706.55 1741.15 1706.63 1740.9 1706.74C1740.64 1706.85 1740.42 1706.99 1740.22 1707.17C1740.02 1707.34 1739.86 1707.55 1739.75 1707.81C1739.63 1708.06 1739.57 1708.35 1739.57 1708.69C1739.57 1709.06 1739.65 1709.38 1739.81 1709.65C1739.96 1709.92 1740.17 1710.13 1740.44 1710.3C1740.7 1710.48 1741.01 1710.6 1741.36 1710.69C1741.71 1710.76 1742.08 1710.8 1742.47 1710.8ZM1739.82 1702.01H1746.5V1703.36H1738.58V1702.04L1739.82 1702.01ZM1738.53 1699.53L1739.79 1699.54C1739.77 1699.65 1739.75 1699.76 1739.75 1699.86C1739.74 1699.96 1739.73 1700.07 1739.73 1700.2C1739.73 1700.51 1739.78 1700.79 1739.88 1701.02C1739.98 1701.26 1740.11 1701.47 1740.29 1701.63C1740.46 1701.8 1740.67 1701.93 1740.92 1702.03C1741.16 1702.12 1741.42 1702.18 1741.71 1702.21L1741.93 1702.59C1741.45 1702.59 1741 1702.55 1740.58 1702.45C1740.16 1702.35 1739.79 1702.21 1739.47 1702.01C1739.14 1701.81 1738.89 1701.55 1738.71 1701.24C1738.52 1700.93 1738.43 1700.56 1738.43 1700.13C1738.43 1700.03 1738.44 1699.92 1738.47 1699.79C1738.48 1699.67 1738.51 1699.58 1738.53 1699.53ZM1745.68 1695.92L1738.58 1693.71V1692.26L1747.72 1695.44C1747.92 1695.52 1748.13 1695.61 1748.35 1695.74C1748.58 1695.85 1748.8 1696 1749 1696.19C1749.21 1696.38 1749.38 1696.6 1749.5 1696.86C1749.63 1697.12 1749.7 1697.43 1749.7 1697.79C1749.7 1697.9 1749.69 1698.04 1749.66 1698.2C1749.63 1698.37 1749.6 1698.49 1749.58 1698.56L1748.48 1698.56C1748.49 1698.52 1748.49 1698.46 1748.5 1698.38C1748.51 1698.29 1748.51 1698.23 1748.51 1698.2C1748.51 1697.89 1748.47 1697.63 1748.39 1697.41C1748.31 1697.2 1748.18 1697.02 1747.99 1696.87C1747.8 1696.72 1747.54 1696.59 1747.22 1696.48L1745.68 1695.92ZM1738.58 1697.54L1744.73 1695.48L1746.16 1695.13L1746.65 1696.1L1738.58 1699.02V1697.54ZM1746.65 1687.86C1746.65 1688.41 1746.55 1688.91 1746.37 1689.36C1746.18 1689.8 1745.91 1690.18 1745.57 1690.51C1745.23 1690.82 1744.82 1691.07 1744.35 1691.24C1743.89 1691.41 1743.37 1691.5 1742.82 1691.5H1742.51C1741.86 1691.5 1741.29 1691.4 1740.79 1691.21C1740.28 1691.02 1739.85 1690.76 1739.5 1690.43C1739.15 1690.11 1738.88 1689.74 1738.7 1689.32C1738.52 1688.91 1738.43 1688.48 1738.43 1688.03C1738.43 1687.46 1738.53 1686.98 1738.72 1686.57C1738.92 1686.15 1739.19 1685.81 1739.54 1685.55C1739.89 1685.28 1740.3 1685.09 1740.77 1684.96C1741.24 1684.84 1741.75 1684.77 1742.31 1684.77H1742.92V1690.69H1741.81V1686.13H1741.71C1741.36 1686.15 1741.02 1686.22 1740.68 1686.35C1740.35 1686.47 1740.08 1686.66 1739.86 1686.93C1739.65 1687.2 1739.54 1687.57 1739.54 1688.03C1739.54 1688.34 1739.61 1688.62 1739.74 1688.88C1739.87 1689.14 1740.06 1689.36 1740.31 1689.55C1740.56 1689.73 1740.88 1689.88 1741.24 1689.98C1741.61 1690.08 1742.03 1690.13 1742.51 1690.13H1742.82C1743.19 1690.13 1743.55 1690.08 1743.88 1689.98C1744.21 1689.87 1744.49 1689.72 1744.74 1689.52C1744.99 1689.31 1745.19 1689.07 1745.33 1688.78C1745.47 1688.49 1745.54 1688.15 1745.54 1687.78C1745.54 1687.3 1745.44 1686.9 1745.25 1686.57C1745.05 1686.23 1744.79 1685.94 1744.46 1685.69L1745.12 1684.87C1745.37 1685.05 1745.62 1685.26 1745.86 1685.53C1746.09 1685.79 1746.28 1686.11 1746.43 1686.5C1746.57 1686.88 1746.65 1687.33 1746.65 1687.86ZM1739.82 1681.83H1746.5V1683.19H1738.58V1681.87L1739.82 1681.83ZM1738.53 1679.36L1739.79 1679.37C1739.77 1679.48 1739.75 1679.59 1739.75 1679.69C1739.74 1679.79 1739.73 1679.9 1739.73 1680.03C1739.73 1680.34 1739.78 1680.61 1739.88 1680.85C1739.98 1681.09 1740.11 1681.3 1740.29 1681.46C1740.46 1681.63 1740.67 1681.76 1740.92 1681.86C1741.16 1681.95 1741.42 1682.01 1741.71 1682.04L1741.93 1682.42C1741.45 1682.42 1741 1682.37 1740.58 1682.28C1740.16 1682.18 1739.79 1682.04 1739.47 1681.83C1739.14 1681.63 1738.89 1681.38 1738.71 1681.07C1738.52 1680.76 1738.43 1680.39 1738.43 1679.96C1738.43 1679.86 1738.44 1679.75 1738.47 1679.62C1738.48 1679.5 1738.51 1679.41 1738.53 1679.36Z" fill="black"/>
<rect x="1697.25" y="1740.25" width="88.5" height="88.5" rx="0.75" transform="rotate(-90 1697.25 1740.25)" stroke="#444444" stroke-width="1.5"/>
</g>
<g id="door_4">
<rect x="1787.25" y="1728.25" width="66" height="3" transform="matrix(0 -1 1 0 59 3515.5)" fill="white"/>
<rect x="1787.25" y="1728.25" width="66" height="3" transform="matrix(0 -1 1 0 59 3515.5)" stroke="#444444" stroke-width="1.5"/>
</g>
</g>
<g id=".templates/bathroom/shower-template">
<g id="shower">
<g id="tiles left">
<rect x="1513.38" y="1651.38" width="0.75" height="140.25" fill="white"/>
<rect x="1513.38" y="1651.38" width="0.75" height="140.25" stroke="#444444" stroke-width="0.75"/>
</g>
<g id="tiles right">
<rect x="1656.88" y="1651.38" width="0.75" height="140.25" fill="white"/>
<rect x="1656.88" y="1651.38" width="0.75" height="140.25" stroke="#444444" stroke-width="0.75"/>
</g>
<g id="tiles top">
<rect x="1514.37" y="1652.12" width="0.75" height="142.25" transform="rotate(-90 1514.37 1652.12)" fill="white"/>
<rect x="1514.37" y="1652.12" width="0.75" height="142.25" transform="rotate(-90 1514.37 1652.12)" stroke="#444444" stroke-width="0.75"/>
</g>
<g id="shower_2">
<rect x="1514.5" y="1652.5" width="142" height="139" rx="3.5" fill="white"/>
<rect x="1514.5" y="1652.5" width="142" height="139" rx="3.5" stroke="#444444"/>
</g>
<g id="shower_3">
<rect x="1518.5" y="1656.5" width="134" height="131" rx="3.5" fill="white"/>
<path id="name_3" d="M1572.97 1723.6C1572.97 1723.47 1572.94 1723.35 1572.88 1723.24C1572.83 1723.12 1572.71 1723.02 1572.54 1722.93C1572.36 1722.84 1572.1 1722.75 1571.75 1722.69C1571.46 1722.62 1571.2 1722.55 1570.96 1722.47C1570.72 1722.38 1570.52 1722.28 1570.36 1722.16C1570.2 1722.04 1570.07 1721.9 1569.98 1721.73C1569.89 1721.57 1569.85 1721.38 1569.85 1721.16C1569.85 1720.95 1569.9 1720.76 1569.99 1720.57C1570.08 1720.39 1570.21 1720.22 1570.38 1720.08C1570.56 1719.93 1570.76 1719.82 1571 1719.74C1571.24 1719.66 1571.51 1719.62 1571.81 1719.62C1572.23 1719.62 1572.59 1719.69 1572.89 1719.84C1573.19 1719.99 1573.42 1720.19 1573.58 1720.44C1573.74 1720.69 1573.82 1720.97 1573.82 1721.27H1572.92C1572.92 1721.12 1572.87 1720.98 1572.79 1720.84C1572.7 1720.7 1572.58 1720.59 1572.41 1720.5C1572.25 1720.41 1572.05 1720.36 1571.81 1720.36C1571.56 1720.36 1571.35 1720.4 1571.2 1720.48C1571.05 1720.55 1570.93 1720.65 1570.86 1720.77C1570.79 1720.88 1570.76 1721.01 1570.76 1721.14C1570.76 1721.24 1570.78 1721.32 1570.81 1721.4C1570.84 1721.48 1570.91 1721.55 1570.99 1721.61C1571.08 1721.67 1571.2 1721.73 1571.36 1721.79C1571.52 1721.84 1571.73 1721.9 1571.97 1721.95C1572.41 1722.05 1572.76 1722.17 1573.04 1722.3C1573.32 1722.44 1573.53 1722.61 1573.67 1722.81C1573.81 1723.01 1573.87 1723.25 1573.87 1723.53C1573.87 1723.76 1573.83 1723.97 1573.73 1724.17C1573.63 1724.36 1573.49 1724.52 1573.31 1724.66C1573.13 1724.8 1572.92 1724.91 1572.67 1724.99C1572.42 1725.06 1572.14 1725.1 1571.83 1725.1C1571.37 1725.1 1570.97 1725.01 1570.65 1724.85C1570.33 1724.68 1570.08 1724.47 1569.92 1724.2C1569.75 1723.94 1569.67 1723.66 1569.67 1723.37H1570.58C1570.59 1723.62 1570.66 1723.81 1570.79 1723.96C1570.92 1724.1 1571.08 1724.21 1571.27 1724.27C1571.46 1724.33 1571.65 1724.36 1571.83 1724.36C1572.08 1724.36 1572.29 1724.32 1572.45 1724.26C1572.62 1724.19 1572.75 1724.1 1572.84 1723.99C1572.93 1723.88 1572.97 1723.75 1572.97 1723.6ZM1575.96 1717.5V1725H1575.06V1717.5H1575.96ZM1575.75 1722.16L1575.37 1722.14C1575.38 1721.78 1575.43 1721.45 1575.53 1721.14C1575.64 1720.83 1575.78 1720.56 1575.97 1720.34C1576.16 1720.11 1576.39 1719.93 1576.65 1719.81C1576.91 1719.68 1577.2 1719.62 1577.52 1719.62C1577.78 1719.62 1578.02 1719.65 1578.22 1719.73C1578.43 1719.79 1578.61 1719.91 1578.76 1720.06C1578.91 1720.21 1579.02 1720.41 1579.1 1720.65C1579.18 1720.9 1579.22 1721.19 1579.22 1721.54V1725H1578.31V1721.53C1578.31 1721.25 1578.27 1721.03 1578.19 1720.86C1578.1 1720.69 1577.99 1720.57 1577.83 1720.5C1577.67 1720.42 1577.48 1720.38 1577.25 1720.38C1577.03 1720.38 1576.82 1720.43 1576.64 1720.52C1576.46 1720.62 1576.3 1720.75 1576.16 1720.91C1576.03 1721.08 1575.93 1721.27 1575.86 1721.48C1575.78 1721.7 1575.75 1721.92 1575.75 1722.16ZM1580.33 1722.42V1722.3C1580.33 1721.92 1580.38 1721.57 1580.5 1721.25C1580.61 1720.92 1580.77 1720.63 1580.97 1720.39C1581.18 1720.15 1581.43 1719.96 1581.73 1719.82C1582.03 1719.69 1582.36 1719.62 1582.73 1719.62C1583.1 1719.62 1583.43 1719.69 1583.73 1719.82C1584.03 1719.96 1584.28 1720.15 1584.49 1720.39C1584.7 1720.63 1584.86 1720.92 1584.97 1721.25C1585.08 1721.57 1585.14 1721.92 1585.14 1722.3V1722.42C1585.14 1722.8 1585.08 1723.15 1584.97 1723.48C1584.86 1723.8 1584.7 1724.09 1584.49 1724.33C1584.28 1724.57 1584.03 1724.76 1583.73 1724.9C1583.44 1725.03 1583.11 1725.1 1582.74 1725.1C1582.37 1725.1 1582.03 1725.03 1581.74 1724.9C1581.44 1724.76 1581.19 1724.57 1580.97 1724.33C1580.77 1724.09 1580.61 1723.8 1580.5 1723.48C1580.38 1723.15 1580.33 1722.8 1580.33 1722.42ZM1581.23 1722.3V1722.42C1581.23 1722.68 1581.26 1722.93 1581.33 1723.16C1581.39 1723.4 1581.48 1723.6 1581.6 1723.78C1581.73 1723.96 1581.89 1724.1 1582.08 1724.2C1582.27 1724.31 1582.49 1724.36 1582.74 1724.36C1582.98 1724.36 1583.2 1724.31 1583.39 1724.2C1583.57 1724.1 1583.73 1723.96 1583.85 1723.78C1583.98 1723.6 1584.07 1723.4 1584.13 1723.16C1584.2 1722.93 1584.23 1722.68 1584.23 1722.42V1722.3C1584.23 1722.04 1584.2 1721.8 1584.13 1721.57C1584.07 1721.33 1583.98 1721.13 1583.85 1720.95C1583.73 1720.76 1583.57 1720.62 1583.38 1720.52C1583.2 1720.41 1582.98 1720.36 1582.73 1720.36C1582.48 1720.36 1582.26 1720.41 1582.07 1720.52C1581.89 1720.62 1581.73 1720.76 1581.6 1720.95C1581.48 1721.13 1581.39 1721.33 1581.33 1721.57C1581.26 1721.8 1581.23 1722.04 1581.23 1722.3ZM1587.61 1724.06L1588.97 1719.72H1589.56L1589.45 1720.58L1588.06 1725H1587.48L1587.61 1724.06ZM1586.7 1719.72L1587.85 1724.11L1587.94 1725H1587.33L1585.79 1719.72H1586.7ZM1590.86 1724.08L1591.96 1719.72H1592.86L1591.33 1725H1590.72L1590.86 1724.08ZM1589.69 1719.72L1591.02 1723.99L1591.17 1725H1590.6L1589.18 1720.57L1589.06 1719.72H1589.69ZM1595.98 1725.1C1595.62 1725.1 1595.28 1725.04 1594.98 1724.91C1594.69 1724.79 1594.43 1724.61 1594.22 1724.38C1594 1724.15 1593.84 1723.88 1593.73 1723.57C1593.61 1723.26 1593.56 1722.92 1593.56 1722.54V1722.34C1593.56 1721.91 1593.62 1721.53 1593.75 1721.19C1593.87 1720.85 1594.05 1720.57 1594.26 1720.33C1594.48 1720.1 1594.73 1719.92 1595.01 1719.8C1595.28 1719.68 1595.57 1719.62 1595.87 1719.62C1596.24 1719.62 1596.57 1719.68 1596.84 1719.81C1597.12 1719.94 1597.35 1720.13 1597.52 1720.36C1597.7 1720.59 1597.83 1720.87 1597.91 1721.18C1598 1721.49 1598.04 1721.84 1598.04 1722.21V1722.61H1594.09V1721.88H1597.14V1721.81C1597.12 1721.57 1597.07 1721.34 1596.99 1721.12C1596.91 1720.9 1596.78 1720.72 1596.6 1720.58C1596.42 1720.43 1596.18 1720.36 1595.87 1720.36C1595.66 1720.36 1595.47 1720.41 1595.3 1720.49C1595.13 1720.58 1594.98 1720.7 1594.86 1720.87C1594.73 1721.04 1594.64 1721.25 1594.57 1721.49C1594.5 1721.74 1594.46 1722.02 1594.46 1722.34V1722.54C1594.46 1722.79 1594.5 1723.03 1594.57 1723.25C1594.64 1723.47 1594.74 1723.66 1594.88 1723.83C1595.01 1723.99 1595.18 1724.12 1595.37 1724.22C1595.56 1724.31 1595.78 1724.36 1596.03 1724.36C1596.35 1724.36 1596.62 1724.3 1596.84 1724.17C1597.06 1724.03 1597.26 1723.86 1597.42 1723.64L1597.97 1724.08C1597.86 1724.25 1597.71 1724.41 1597.54 1724.57C1597.36 1724.73 1597.14 1724.85 1596.89 1724.95C1596.63 1725.05 1596.33 1725.1 1595.98 1725.1ZM1600 1720.55V1725H1599.09V1719.72H1599.97L1600 1720.55ZM1601.65 1719.69L1601.64 1720.53C1601.57 1720.51 1601.5 1720.5 1601.43 1720.5C1601.36 1720.49 1601.29 1720.49 1601.2 1720.49C1600.99 1720.49 1600.81 1720.52 1600.65 1720.59C1600.49 1720.65 1600.36 1720.74 1600.25 1720.86C1600.14 1720.98 1600.05 1721.12 1599.98 1721.28C1599.92 1721.44 1599.88 1721.61 1599.86 1721.81L1599.61 1721.95C1599.61 1721.63 1599.64 1721.33 1599.7 1721.05C1599.76 1720.77 1599.86 1720.53 1600 1720.31C1600.13 1720.09 1600.3 1719.93 1600.5 1719.8C1600.71 1719.68 1600.96 1719.62 1601.25 1719.62C1601.31 1719.62 1601.39 1719.63 1601.47 1719.64C1601.56 1719.66 1601.61 1719.67 1601.65 1719.69Z" fill="black"/>
<rect x="1518.5" y="1656.5" width="134" height="131" rx="3.5" stroke="#444444"/>
</g>
<g id="drain">
<rect x="1637.5" y="1664.5" width="7" height="7" rx="3.5" fill="white"/>
<rect x="1637.5" y="1664.5" width="7" height="7" rx="3.5" stroke="#444444"/>
</g>
<g id="wall-right">
<rect width="17" height="141" transform="translate(1658 1651)" fill="#E3E3E3"/>
</g>
<g id="wall-left">
<rect width="17" height="141" transform="translate(1496 1651)" fill="#E3E3E3"/>
</g>
</g>
</g>
<g id="bathroom/toilet">
<g id=".templates/bathroom/toilet-template">
<g id="shelf">
<rect width="117.531" height="30.7865" transform="matrix(0 1 -1 0 1675 1492.47)" fill="#E3E3E3"/>
</g>
<g id="right_3">
<g id="shelf_2">
<rect x="-0.367284" y="-0.367284" width="0.734568" height="136.265" transform="matrix(0 -1 -1 0 1674.27 1491.73)" fill="white"/>
<rect x="-0.367284" y="-0.367284" width="0.734568" height="136.265" transform="matrix(0 -1 -1 0 1674.27 1491.73)" stroke="#444444" stroke-width="0.734568"/>
</g>
<g id="shelf_3">
<rect x="-0.5" y="-0.5" width="13.6914" height="19.0112" transform="matrix(0 -1 -1 0 1564.71 1506.16)" fill="white"/>
<rect x="-0.5" y="-0.5" width="13.6914" height="19.0112" transform="matrix(0 -1 -1 0 1564.71 1506.16)" stroke="#444444"/>
</g>
</g>
<g id="toilet">
<g id="floor-plan/basic-elements">
<rect x="1643.71" y="1523.82" width="54.8272" height="48.2584" rx="3.5" transform="rotate(90 1643.71 1523.82)" fill="white"/>
<rect x="1643.71" y="1523.82" width="54.8272" height="48.2584" rx="3.5" transform="rotate(90 1643.71 1523.82)" stroke="#444444"/>
</g>
<g id="floor-plan/basic-elements_2">
<path d="M1628.32 1533.32V1569.15C1628.32 1574.39 1624.07 1578.65 1618.82 1578.65H1579.55C1568.78 1578.65 1560.05 1569.92 1560.05 1559.15V1543.32C1560.05 1532.55 1568.78 1523.82 1579.55 1523.82H1618.82C1624.07 1523.82 1628.32 1528.07 1628.32 1533.32Z" fill="white"/>
<path d="M1628.32 1533.32V1569.15C1628.32 1574.39 1624.07 1578.65 1618.82 1578.65H1579.55C1568.78 1578.65 1560.05 1569.92 1560.05 1559.15V1543.32C1560.05 1532.55 1568.78 1523.82 1579.55 1523.82H1618.82C1624.07 1523.82 1628.32 1528.07 1628.32 1533.32Z" stroke="#444444"/>
</g>
<g id="floor-plan/basic-elements_3">
<path d="M1625.24 1536.26V1566.21C1625.24 1571.46 1620.99 1575.71 1615.74 1575.71H1582.63C1571.86 1575.71 1563.13 1566.98 1563.13 1556.21V1546.26C1563.13 1535.49 1571.86 1526.76 1582.63 1526.76H1615.74C1620.99 1526.76 1625.24 1531.01 1625.24 1536.26Z" fill="white"/>
<path id="name_4" d="M1593.33 1546.23L1598.29 1547.65V1548.33L1596.37 1547.93L1591.19 1546.42V1545.74L1593.33 1546.23ZM1598.29 1544.77L1593.43 1545.9L1591.19 1546.23V1545.56L1598.29 1543.84V1544.77ZM1593.44 1550.16L1598.29 1551.25V1552.2L1591.19 1550.48V1549.8L1593.44 1550.16ZM1598.29 1548.43L1593.33 1549.8L1591.19 1550.3V1549.62L1596.37 1548.16L1598.29 1547.76V1548.43ZM1593.45 1557.53V1558.47C1593 1558.42 1592.59 1558.29 1592.24 1558.09C1591.89 1557.88 1591.6 1557.58 1591.4 1557.2C1591.19 1556.82 1591.09 1556.35 1591.09 1555.78C1591.09 1555.36 1591.17 1554.98 1591.32 1554.64C1591.48 1554.3 1591.7 1554.01 1591.99 1553.76C1592.28 1553.52 1592.62 1553.33 1593.03 1553.2C1593.43 1553.07 1593.89 1553 1594.38 1553H1595.09C1595.59 1553 1596.04 1553.07 1596.44 1553.2C1596.85 1553.33 1597.2 1553.52 1597.49 1553.77C1597.78 1554.02 1598 1554.32 1598.16 1554.67C1598.31 1555.02 1598.39 1555.42 1598.39 1555.86C1598.39 1556.4 1598.29 1556.85 1598.09 1557.22C1597.89 1557.59 1597.61 1557.88 1597.25 1558.09C1596.9 1558.29 1596.48 1558.42 1596.01 1558.47V1557.53C1596.35 1557.49 1596.63 1557.4 1596.87 1557.28C1597.11 1557.16 1597.3 1556.98 1597.43 1556.75C1597.56 1556.52 1597.62 1556.23 1597.62 1555.86C1597.62 1555.54 1597.56 1555.26 1597.44 1555.02C1597.32 1554.79 1597.15 1554.59 1596.93 1554.42C1596.71 1554.26 1596.44 1554.14 1596.13 1554.06C1595.82 1553.98 1595.48 1553.94 1595.1 1553.94H1594.38C1594.04 1553.94 1593.71 1553.98 1593.4 1554.05C1593.1 1554.12 1592.83 1554.23 1592.6 1554.38C1592.37 1554.53 1592.18 1554.72 1592.05 1554.96C1591.92 1555.19 1591.85 1555.46 1591.85 1555.78C1591.85 1556.18 1591.92 1556.5 1592.04 1556.73C1592.17 1556.97 1592.35 1557.15 1592.59 1557.27C1592.83 1557.39 1593.11 1557.48 1593.45 1557.53Z" fill="black"/>
<path d="M1625.24 1536.26V1566.21C1625.24 1571.46 1620.99 1575.71 1615.74 1575.71H1582.63C1571.86 1575.71 1563.13 1566.98 1563.13 1556.21V1546.26C1563.13 1535.49 1571.86 1526.76 1582.63 1526.76H1615.74C1620.99 1526.76 1625.24 1531.01 1625.24 1536.26Z" stroke="#444444"/>
</g>
</g>
</g>
</g>
<g id="floor-plan/door_3">
<g id="door-template_3">
<g id="door-wall-thickness_3">
<g id="glass-type_3">
<rect id="background_3" width="90" height="17" transform="matrix(1 0 0 -1 1413 1489)" fill="white"/>
</g>
<rect id="door_5" x="0.5" y="-0.5" width="89" height="16" transform="matrix(1 0 0 -1 1413 1488)" stroke="black" stroke-dasharray="4 16"/>
<rect id="left_5" width="1" height="17" transform="matrix(1 0 0 -1 1413 1489)" fill="black"/>
<rect id="right_4" width="1" height="17" transform="matrix(1 0 0 -1 1502 1489)" fill="black"/>
</g>
<g id="left_6">
<g id=".templates/base/door_3" clip-path="url(#clip6_1005_24479)">
<g id="Ellipse 1_5">
<mask id="path-93-outside-5_1005_24479" maskUnits="userSpaceOnUse" x="1411.98" y="1487.98" width="91" height="91" fill="black">
<rect fill="white" x="1411.98" y="1487.98" width="91" height="91"/>
<path d="M1501.98 1489C1501.98 1500.68 1499.68 1512.25 1495.2 1523.05C1490.73 1533.85 1484.18 1543.65 1475.92 1551.92C1467.65 1560.18 1457.85 1566.73 1447.05 1571.2C1436.25 1575.68 1424.68 1577.98 1413 1577.98L1413 1489L1501.98 1489Z"/>
</mask>
<path d="M1501.98 1489C1501.98 1500.68 1499.68 1512.25 1495.2 1523.05C1490.73 1533.85 1484.18 1543.65 1475.92 1551.92C1467.65 1560.18 1457.85 1566.73 1447.05 1571.2C1436.25 1575.68 1424.68 1577.98 1413 1577.98L1413 1489L1501.98 1489Z" fill="white"/>
<path d="M1501.98 1489C1501.98 1500.68 1499.68 1512.25 1495.2 1523.05C1490.73 1533.85 1484.18 1543.65 1475.92 1551.92C1467.65 1560.18 1457.85 1566.73 1447.05 1571.2C1436.25 1575.68 1424.68 1577.98 1413 1577.98L1413 1489L1501.98 1489Z" stroke="black" stroke-width="2" mask="url(#path-93-outside-5_1005_24479)"/>
</g>
</g>
<rect id="Rectangle 2_3" width="1" height="90" transform="matrix(1 0 0 -1 1413 1579)" fill="black"/>
</g>
</g>
</g>
<g id=".templates/lounge/sofa-template">
<g id="armrest">
<rect x="802.5" y="296.5" width="27" height="99" fill="white"/>
<rect x="802.5" y="296.5" width="27" height="99" stroke="#444444"/>
</g>
<g id="Frame 1">
<g id="armrest_2">
<rect x="830.5" y="296.5" width="66" height="34" fill="white"/>
<rect x="830.5" y="296.5" width="66" height="34" stroke="#444444"/>
</g>
<g id="armrest_3">
<rect x="830.5" y="331.5" width="66" height="64" fill="white"/>
<rect x="830.5" y="331.5" width="66" height="64" stroke="#444444"/>
</g>
</g>
<g id="Frame 2">
<g id="armrest_4">
<rect x="897.5" y="296.5" width="66" height="34" fill="white"/>
<rect x="897.5" y="296.5" width="66" height="34" stroke="#444444"/>
</g>
<g id="armrest_5">
<rect x="897.5" y="331.5" width="66" height="64" fill="white"/>
<rect x="897.5" y="331.5" width="66" height="64" stroke="#444444"/>
</g>
</g>
<g id="Frame 3">
<g id="armrest_6">
<rect x="964.5" y="296.5" width="66" height="34" fill="white"/>
<rect x="964.5" y="296.5" width="66" height="34" stroke="#444444"/>
</g>
<g id="armrest_7">
<rect x="964.5" y="331.5" width="66" height="64" fill="white"/>
<rect x="964.5" y="331.5" width="66" height="64" stroke="#444444"/>
</g>
</g>
<g id="Frame 4">
<g id="armrest_8">
<rect x="1031.5" y="296.5" width="66" height="34" fill="white"/>
<rect x="1031.5" y="296.5" width="66" height="34" stroke="#444444"/>
</g>
<g id="armrest_9">
<rect x="1031.5" y="331.5" width="66" height="64" fill="white"/>
<rect x="1031.5" y="331.5" width="66" height="64" stroke="#444444"/>
</g>
</g>
<g id="armrest_10">
<rect x="1098.5" y="296.5" width="27" height="99" fill="white"/>
<rect x="1098.5" y="296.5" width="27" height="99" stroke="#444444"/>
</g>
</g>
<g id=".templates/lounge/sofa-template_2">
<g id="armrest_11">
<rect x="802.5" y="553.5" width="27" height="99" fill="white"/>
<rect x="802.5" y="553.5" width="27" height="99" stroke="#444444"/>
</g>
<g id="Frame 1_2">
<g id="armrest_12">
<rect x="830.5" y="553.5" width="66" height="34" fill="white"/>
<rect x="830.5" y="553.5" width="66" height="34" stroke="#444444"/>
</g>
<g id="armrest_13">
<rect x="830.5" y="588.5" width="66" height="64" fill="white"/>
<rect x="830.5" y="588.5" width="66" height="64" stroke="#444444"/>
</g>
</g>
<g id="Frame 2_2">
<g id="armrest_14">
<rect x="897.5" y="553.5" width="66" height="34" fill="white"/>
<rect x="897.5" y="553.5" width="66" height="34" stroke="#444444"/>
</g>
<g id="armrest_15">
<rect x="897.5" y="588.5" width="66" height="64" fill="white"/>
<rect x="897.5" y="588.5" width="66" height="64" stroke="#444444"/>
</g>
</g>
<g id="Frame 3_2">
<g id="armrest_16">
<rect x="964.5" y="553.5" width="66" height="34" fill="white"/>
<rect x="964.5" y="553.5" width="66" height="34" stroke="#444444"/>
</g>
<g id="armrest_17">
<rect x="964.5" y="588.5" width="66" height="64" fill="white"/>
<rect x="964.5" y="588.5" width="66" height="64" stroke="#444444"/>
</g>
</g>
<g id="Frame 4_2">
<g id="armrest_18">
<rect x="1031.5" y="553.5" width="66" height="34" fill="white"/>
<rect x="1031.5" y="553.5" width="66" height="34" stroke="#444444"/>
</g>
<g id="armrest_19">
<rect x="1031.5" y="588.5" width="66" height="64" fill="white"/>
<rect x="1031.5" y="588.5" width="66" height="64" stroke="#444444"/>
</g>
</g>
<g id="armrest_20">
<rect x="1098.5" y="553.5" width="27" height="99" fill="white"/>
<rect x="1098.5" y="553.5" width="27" height="99" stroke="#444444"/>
</g>
</g>
<g id=".templates/lounge/sofa-template_3">
<g id="armrest_21">
<rect x="644.5" y="990.5" width="27" height="99" transform="rotate(-90 644.5 990.5)" fill="white"/>
<rect x="644.5" y="990.5" width="27" height="99" transform="rotate(-90 644.5 990.5)" stroke="#444444"/>
</g>
<g id="Frame 1_3">
<g id="armrest_22">
<rect x="644.5" y="962.5" width="66" height="34" transform="rotate(-90 644.5 962.5)" fill="white"/>
<rect x="644.5" y="962.5" width="66" height="34" transform="rotate(-90 644.5 962.5)" stroke="#444444"/>
</g>
<g id="armrest_23">
<rect x="679.5" y="962.5" width="66" height="64" transform="rotate(-90 679.5 962.5)" fill="white"/>
<rect x="679.5" y="962.5" width="66" height="64" transform="rotate(-90 679.5 962.5)" stroke="#444444"/>
</g>
</g>
<g id="Frame 2_3">
<g id="armrest_24">
<rect x="644.5" y="895.5" width="66" height="34" transform="rotate(-90 644.5 895.5)" fill="white"/>
<rect x="644.5" y="895.5" width="66" height="34" transform="rotate(-90 644.5 895.5)" stroke="#444444"/>
</g>
<g id="armrest_25">
<rect x="679.5" y="895.5" width="66" height="64" transform="rotate(-90 679.5 895.5)" fill="white"/>
<rect x="679.5" y="895.5" width="66" height="64" transform="rotate(-90 679.5 895.5)" stroke="#444444"/>
</g>
</g>
<g id="Frame 3_3">
<g id="armrest_26">
<rect x="644.5" y="828.5" width="66" height="34" transform="rotate(-90 644.5 828.5)" fill="white"/>
<rect x="644.5" y="828.5" width="66" height="34" transform="rotate(-90 644.5 828.5)" stroke="#444444"/>
</g>
<g id="armrest_27">
<rect x="679.5" y="828.5" width="66" height="64" transform="rotate(-90 679.5 828.5)" fill="white"/>
<rect x="679.5" y="828.5" width="66" height="64" transform="rotate(-90 679.5 828.5)" stroke="#444444"/>
</g>
</g>
<g id="Frame 4_3">
<g id="armrest_28">
<rect x="644.5" y="761.5" width="66" height="34" transform="rotate(-90 644.5 761.5)" fill="white"/>
<rect x="644.5" y="761.5" width="66" height="34" transform="rotate(-90 644.5 761.5)" stroke="#444444"/>
</g>
<g id="armrest_29">
<rect x="679.5" y="761.5" width="66" height="64" transform="rotate(-90 679.5 761.5)" fill="white"/>
<rect x="679.5" y="761.5" width="66" height="64" transform="rotate(-90 679.5 761.5)" stroke="#444444"/>
</g>
</g>
<g id="armrest_30">
<rect x="644.5" y="694.5" width="27" height="99" transform="rotate(-90 644.5 694.5)" fill="white"/>
<rect x="644.5" y="694.5" width="27" height="99" transform="rotate(-90 644.5 694.5)" stroke="#444444"/>
</g>
</g>
<g id=".templates/lounge/sofa-template_4">
<g id="armrest_31">
<rect x="1276.5" y="667.5" width="27" height="99" transform="rotate(90 1276.5 667.5)" fill="white"/>
<rect x="1276.5" y="667.5" width="27" height="99" transform="rotate(90 1276.5 667.5)" stroke="#444444"/>
</g>
<g id="Frame 1_4">
<g id="armrest_32">
<rect x="1276.5" y="695.5" width="66" height="34" transform="rotate(90 1276.5 695.5)" fill="white"/>
<rect x="1276.5" y="695.5" width="66" height="34" transform="rotate(90 1276.5 695.5)" stroke="#444444"/>
</g>
<g id="armrest_33">
<rect x="1241.5" y="695.5" width="66" height="64" transform="rotate(90 1241.5 695.5)" fill="white"/>
<rect x="1241.5" y="695.5" width="66" height="64" transform="rotate(90 1241.5 695.5)" stroke="#444444"/>
</g>
</g>
<g id="Frame 2_4">
<g id="armrest_34">
<rect x="1276.5" y="762.5" width="66" height="34" transform="rotate(90 1276.5 762.5)" fill="white"/>
<rect x="1276.5" y="762.5" width="66" height="34" transform="rotate(90 1276.5 762.5)" stroke="#444444"/>
</g>
<g id="armrest_35">
<rect x="1241.5" y="762.5" width="66" height="64" transform="rotate(90 1241.5 762.5)" fill="white"/>
<rect x="1241.5" y="762.5" width="66" height="64" transform="rotate(90 1241.5 762.5)" stroke="#444444"/>
</g>
</g>
<g id="Frame 3_4">
<g id="armrest_36">
<rect x="1276.5" y="829.5" width="66" height="34" transform="rotate(90 1276.5 829.5)" fill="white"/>
<rect x="1276.5" y="829.5" width="66" height="34" transform="rotate(90 1276.5 829.5)" stroke="#444444"/>
</g>
<g id="armrest_37">
<rect x="1241.5" y="829.5" width="66" height="64" transform="rotate(90 1241.5 829.5)" fill="white"/>
<rect x="1241.5" y="829.5" width="66" height="64" transform="rotate(90 1241.5 829.5)" stroke="#444444"/>
</g>
</g>
<g id="Frame 4_4">
<g id="armrest_38">
<rect x="1276.5" y="896.5" width="66" height="34" transform="rotate(90 1276.5 896.5)" fill="white"/>
<rect x="1276.5" y="896.5" width="66" height="34" transform="rotate(90 1276.5 896.5)" stroke="#444444"/>
</g>
<g id="armrest_39">
<rect x="1241.5" y="896.5" width="66" height="64" transform="rotate(90 1241.5 896.5)" fill="white"/>
<rect x="1241.5" y="896.5" width="66" height="64" transform="rotate(90 1241.5 896.5)" stroke="#444444"/>
</g>
</g>
<g id="armrest_40">
<rect x="1276.5" y="963.5" width="27" height="99" transform="rotate(90 1276.5 963.5)" fill="white"/>
<rect x="1276.5" y="963.5" width="27" height="99" transform="rotate(90 1276.5 963.5)" stroke="#444444"/>
</g>
</g>
<g id=".templates/floor-plan/platform-template" clip-path="url(#clip7_1005_24479)">
<g id="platform">
<rect x="740.5" y="1228.5" width="446" height="16" fill="white"/>
<rect x="740.5" y="1228.5" width="446" height="16" stroke="black"/>
</g>
</g>
<g id="work-sleep/bed">
<g id=".templates/work-sleep/bed-template">
<g id="bed-drawer">
<rect x="0.75" y="-0.75" width="259.5" height="319.5" transform="matrix(1 0 0 -1 800.5 1786)" fill="white"/>
<rect x="0.75" y="-0.75" width="259.5" height="319.5" transform="matrix(1 0 0 -1 800.5 1786)" stroke="#444444" stroke-width="1.5"/>
</g>
<g id="mattress">
<rect x="0.75" y="-0.75" width="238.5" height="298.5" rx="5.25" transform="matrix(1 0 0 -1 811 1775.5)" fill="white"/>
<rect x="0.75" y="-0.75" width="238.5" height="298.5" rx="5.25" transform="matrix(1 0 0 -1 811 1775.5)" stroke="#444444" stroke-width="1.5"/>
</g>
<g id="pillow-left">
<rect x="0.75" y="-0.75" width="94.5" height="82.5" rx="5.25" transform="matrix(1 0 0 -1 831.572 1751.5)" fill="white"/>
<rect x="0.75" y="-0.75" width="94.5" height="82.5" rx="5.25" transform="matrix(1 0 0 -1 831.572 1751.5)" stroke="#444444" stroke-width="1.5"/>
</g>
<g id="pillow-right">
<rect x="0.75" y="-0.75" width="94.5" height="82.5" rx="5.25" transform="matrix(1 0 0 -1 934.429 1751.5)" fill="white"/>
<rect x="0.75" y="-0.75" width="94.5" height="82.5" rx="5.25" transform="matrix(1 0 0 -1 934.429 1751.5)" stroke="#444444" stroke-width="1.5"/>
</g>
<g id="blanket">
<path d="M811.75 1716.25H1050.25V1483C1050.25 1480.1 1047.9 1477.75 1045 1477.75H817C814.101 1477.75 811.75 1480.1 811.75 1483V1716.25Z" fill="white"/>
<path d="M811.75 1716.25H1050.25V1483C1050.25 1480.1 1047.9 1477.75 1045 1477.75H817C814.101 1477.75 811.75 1480.1 811.75 1483V1716.25Z" stroke="#444444" stroke-width="1.5"/>
</g>
</g>
</g>
<g id=".templates/floor-plan/glass">
<rect id="background_4" x="1384" y="1255" width="293" height="20" fill="white"/>
</g>
<g id=".templates/floor-plan/platform-template_2" clip-path="url(#clip8_1005_24479)">
<g id="platform_2">
<rect x="51.5" y="59.5" width="446" height="1931" fill="white"/>
<rect x="51.5" y="59.5" width="446" height="1931" stroke="black"/>
</g>
</g>
<g id=".templates/floor-plan/window-wall-thickness">
<g id=".templates/floor-plan/window-wall-thickness_2">
<rect id="background_5" x="496" y="845" width="299" height="17" transform="rotate(-90 496 845)" fill="white"/>
</g>
</g>
<g id=".templates/floor-plan/window-component">
<g id=".templates/floor-plan/window-component_2">
<g id=".templates/floor-plan/window-elements">
<g id=".templates/floor-plan/arrow-left-right">
<g id="arrow_2">
<mask maskUnits="userSpaceOnUse" x="0" y="0" width="0" height="0" fill="black">
<rect fill="white" width="0" height="0"/>
</mask>
<path d="M475.273 723.788L479.647 716.212H470.899L475.273 723.788ZM475.273 663.182L470.899 670.758H479.647L475.273 663.182ZM476.03 716.97V670H474.515V716.97H476.03Z" fill="black" mask="url(#)"/>
</g>
</g>
<g id="sliding-door">
<g id=".templates/floor-plan/window-line-template">
<rect width="163.636" height="9.09091" transform="matrix(0 -1 -1 0 491.939 845)" fill="white"/>
<rect id="window-line" x="-1.51515" y="-1.51515" width="160.606" height="6.06061" transform="matrix(0 -1 -1 0 488.909 841.97)" stroke="black" stroke-width="3.0303"/>
</g>
<g id=".templates/floor-plan/window-line-template_2">
<rect width="163.636" height="9.09091" transform="matrix(0 -1 -1 0 501.03 705.606)" fill="white"/>
<rect id="window-line_2" x="-1.51515" y="-1.51515" width="160.606" height="6.06061" transform="matrix(0 -1 -1 0 498 702.576)" stroke="black" stroke-width="3.0303"/>
</g>
</g>
</g>
<g id=".templates/floor-plan/window-elements_2">
<g id="bottom">
<rect id="window-line_3" x="504.818" y="844.242" width="301.515" height="1.51515" transform="rotate(-90 504.818 844.242)" stroke="black" stroke-width="1.51515" stroke-dasharray="0.91 1.52"/>
</g>
</g>
<g id=".templates/floor-plan/window-elements_3">
<rect id="window-line_4" x="510.879" y="844.242" width="301.515" height="1.51515" transform="rotate(-90 510.879 844.242)" stroke="black" stroke-width="1.51515" stroke-dasharray="15.15 12.12"/>
</g>
</g>
</g>
<g id="floor-plan/window">
<g id="window">
<g id="Frame 11">
<g id="baseboard">
<rect id="background_6" width="168" height="2" transform="matrix(0 1 1 0 488 1429)" fill="white"/>
</g>
<g id="window-wall-thickness">
<g id=".templates/floor-plan/window-wall-thickness_3">
<rect id="background_7" width="168" height="17" transform="matrix(0 1 1 0 490 1429)" fill="white"/>
</g>
</g>
</g>
<g id="arrow-top_2">
<g id="arrow-top_3" clip-path="url(#clip9_1005_24479)">
<g id="arrow_3">
<mask maskUnits="userSpaceOnUse" x="0" y="0" width="0" height="0" fill="black">
<rect fill="white" width="0" height="0"/>
</mask>
<path d="M501 1513.5L498.5 1514.94V1512.06L501 1513.5ZM490 1513.5L492.5 1512.06V1514.94L490 1513.5ZM498.75 1513.75H492.25V1513.25H498.75V1513.75Z" fill="black" mask="url(#)"/>
</g>
</g>
</g>
<g id="window-component">
<g id="window-parts">
<g id="top-part">
<g id="window-rectangle">
<g id=".templates/floor-plan/window-line-template_3">
<rect width="168" height="3" transform="matrix(0 1 -1 0 497 1429)" fill="white"/>
<rect id="window-line_5" x="496.5" y="1429.5" width="167" height="2" transform="rotate(90 496.5 1429.5)" stroke="black"/>
</g>
</g>
</g>
<g id="middle-part">
<g id="bottom_2">
<rect id="window-line_6" x="0.25" y="0.25" width="167.5" height="0.5" transform="matrix(0 1 1 0 498 1429)" stroke="black" stroke-width="0.5" stroke-dasharray="0.3 0.5"/>
</g>
</g>
<g id="bottom-part">
<rect id="window-line_7" x="0.25" y="0.25" width="167.5" height="0.5" transform="matrix(0 1 1 0 500 1429)" stroke="black" stroke-width="0.5" stroke-dasharray="5 4"/>
</g>
</g>
</g>
</g>
</g>
<g id=".templates/floor-plan/arrow-top_2">
<g id="arrow-top_4" clip-path="url(#clip10_1005_24479)">
<g id="arrow_4">
<mask maskUnits="userSpaceOnUse" x="0" y="0" width="0" height="0" fill="black">
<rect fill="white" width="0" height="0"/>
</mask>
<path d="M463.25 1893.38L488.875 1908.17V1878.58L463.25 1893.38ZM576 1893.38L550.375 1878.58V1908.17L576 1893.38ZM486.312 1895.94H552.938V1890.81H486.312V1895.94Z" fill="black" mask="url(#)"/>
</g>
</g>
</g>
</g>
<defs>
<clipPath id="clip0_1005_24479">
<rect width="3500" height="2500" fill="white" transform="translate(-352 -219)"/>
</clipPath>
<clipPath id="clip1_1005_24479">
<rect width="90" height="90" fill="white" transform="matrix(1 4.37114e-08 4.37114e-08 -1 1279 1393)"/>
</clipPath>
<clipPath id="clip2_1005_24479">
<rect width="90" height="90" fill="white" transform="matrix(4.37114e-08 -1 -1 -4.37114e-08 1938 1579)"/>
</clipPath>
<clipPath id="clip3_1005_24479">
<rect width="184" height="642.405" fill="white" transform="translate(1493 408)"/>
</clipPath>
<clipPath id="clip4_1005_24479">
<rect width="184" height="642.405" fill="white" transform="matrix(0 -1 1 0 498 1991)"/>
</clipPath>
<clipPath id="clip5_1005_24479">
<rect width="30.75" height="71.75" fill="white" transform="matrix(1 0 0 -1 1571 490)"/>
</clipPath>
<clipPath id="clip6_1005_24479">
<rect width="90" height="90" fill="white" transform="matrix(4.37114e-08 -1 -1 -4.37114e-08 1503 1579)"/>
</clipPath>
<clipPath id="clip7_1005_24479">
<rect width="447" height="17" fill="white" transform="translate(740 1228)"/>
</clipPath>
<clipPath id="clip8_1005_24479">
<rect width="447" height="1932" fill="white" transform="translate(51 59)"/>
</clipPath>
<clipPath id="clip9_1005_24479">
<rect width="3" height="7" fill="white" transform="matrix(0 1 1 0 490 1512)"/>
</clipPath>
<clipPath id="clip10_1005_24479">
<rect width="30.75" height="71.75" fill="white" transform="matrix(0 1 -1 0 576 1878)"/>
</clipPath>
</defs>
</svg>
