<svg width="3075" height="2050" viewBox="0 0 3075 2050" fill="none" xmlns="http://www.w3.org/2000/svg">
<g id="Upstairs">
<rect width="3500" height="2500" transform="translate(-328 -169)" fill="white"/>
<g id="room">
<g id="labels-baseboard">
<rect x="499.669" y="1228.67" width="986.661" height="544.661" fill="white"/>
<rect x="499.669" y="1228.67" width="986.661" height="544.661" stroke="#444444" stroke-width="16.661"/>
</g>
</g>
<g id=".templates/kitchen/cupboards-counter-template">
<g id="counter">
<rect x="-0.5" y="-0.5" width="205" height="75" transform="matrix(0 -1 -1 0 1478 1451)" fill="white"/>
<rect x="-0.5" y="-0.5" width="205" height="75" transform="matrix(0 -1 -1 0 1478 1451)" stroke="#444444"/>
</g>
<g id="door">
<rect x="-0.25" y="-0.25" width="205.5" height="0.5" transform="matrix(0 -1 -1 0 1409.5 1451.5)" fill="white"/>
<rect x="-0.25" y="-0.25" width="205.5" height="0.5" transform="matrix(0 -1 -1 0 1409.5 1451.5)" stroke="#444444" stroke-width="0.5"/>
</g>
</g>
<g id=".templates/kitchen/cupboards-counter-template_2">
<g id="counter_2">
<rect x="966.5" y="1248.5" width="346" height="77" fill="white"/>
<rect x="966.5" y="1248.5" width="346" height="77" stroke="#444444"/>
</g>
<g id="door_2">
<rect x="966.25" y="1319.25" width="346.5" height="0.5" fill="white"/>
<rect x="966.25" y="1319.25" width="346.5" height="0.5" stroke="#444444" stroke-width="0.5"/>
</g>
</g>
<g id=".templates/kitchen/cupboards-counter-template_3">
<g id="counter_3">
<rect x="-0.5" y="-0.5" width="221" height="75" transform="matrix(0 -1 -1 0 1478 1764)" fill="white"/>
<rect x="-0.5" y="-0.5" width="221" height="75" transform="matrix(0 -1 -1 0 1478 1764)" stroke="#444444"/>
</g>
<g id="door_3">
<rect x="-0.25" y="-0.25" width="221.5" height="0.5" transform="matrix(0 -1 -1 0 1409.5 1764.5)" fill="white"/>
<rect x="-0.25" y="-0.25" width="221.5" height="0.5" transform="matrix(0 -1 -1 0 1409.5 1764.5)" stroke="#444444" stroke-width="0.5"/>
</g>
</g>
<g id="room_2">
<g id="labels-baseboard_2">
<rect x="1487.67" y="1221.67" width="354.661" height="551.661" fill="white"/>
<rect x="1487.67" y="1221.67" width="354.661" height="551.661" stroke="#444444" stroke-width="16.661"/>
</g>
</g>
<g id="room_3">
<g id="labels-baseboard_3">
<rect x="1469.5" y="1031.5" width="1049" height="207" fill="white"/>
<rect x="1469.5" y="1031.5" width="1049" height="207" stroke="#444444" stroke-width="17"/>
</g>
</g>
<g id="floor-plan/door">
<g id="door-template">
<g id="door-wall-thickness">
<g id="glass-type">
<rect id="background" x="1808" y="1248" width="90" height="17" transform="rotate(-180 1808 1248)" fill="white"/>
</g>
<rect id="door_4" x="1807.5" y="1247.5" width="89" height="16" transform="rotate(-180 1807.5 1247.5)" stroke="black" stroke-dasharray="4 16"/>
<rect id="left" x="1808" y="1248" width="1" height="17" transform="rotate(-180 1808 1248)" fill="black"/>
<rect id="right" x="1719" y="1248" width="1" height="17" transform="rotate(-180 1719 1248)" fill="black"/>
</g>
<g id="left_2">
<g id=".templates/base/door" clip-path="url(#clip0_1005_24299)">
<g id="Ellipse 1">
<mask id="path-14-outside-1_1005_24299" maskUnits="userSpaceOnUse" x="1718.02" y="1246.98" width="91" height="91" fill="black">
<rect fill="white" x="1718.02" y="1246.98" width="91" height="91"/>
<path d="M1719.02 1248C1719.02 1259.68 1721.32 1271.25 1725.8 1282.05C1730.27 1292.85 1736.82 1302.65 1745.08 1310.92C1753.35 1319.18 1763.15 1325.73 1773.95 1330.2C1784.75 1334.68 1796.32 1336.98 1808 1336.98L1808 1248L1719.02 1248Z"/>
</mask>
<path d="M1719.02 1248C1719.02 1259.68 1721.32 1271.25 1725.8 1282.05C1730.27 1292.85 1736.82 1302.65 1745.08 1310.92C1753.35 1319.18 1763.15 1325.73 1773.95 1330.2C1784.75 1334.68 1796.32 1336.98 1808 1336.98L1808 1248L1719.02 1248Z" fill="white"/>
<path d="M1719.02 1248C1719.02 1259.68 1721.32 1271.25 1725.8 1282.05C1730.27 1292.85 1736.82 1302.65 1745.08 1310.92C1753.35 1319.18 1763.15 1325.73 1773.95 1330.2C1784.75 1334.68 1796.32 1336.98 1808 1336.98L1808 1248L1719.02 1248Z" stroke="black" stroke-width="2" mask="url(#path-14-outside-1_1005_24299)"/>
</g>
</g>
<rect id="Rectangle 2" x="1808" y="1338" width="1" height="90" transform="rotate(-180 1808 1338)" fill="black"/>
</g>
</g>
</g>
<g id=".templates/floor-plan/glass">
<rect id="background_2" x="1475" y="1022" width="209" height="18" fill="white"/>
</g>
<g id="room_4">
<g id="labels-baseboard_4">
<rect x="1687.36" y="268.364" width="830.272" height="761.272" fill="white"/>
<rect x="1687.36" y="268.364" width="830.272" height="761.272" stroke="#444444" stroke-width="15.2725"/>
</g>
</g>
<g id="floor-plan/door_2">
<g id="door-template_2">
<g id="door-wall-thickness_2">
<g id="glass-type_2">
<rect id="background_3" x="1734" y="1023" width="90" height="17" fill="white"/>
</g>
<rect id="door_5" x="1734.5" y="1023.5" width="89" height="16" stroke="black" stroke-dasharray="4 16"/>
<rect id="left_3" x="1734" y="1023" width="1" height="17" fill="black"/>
<rect id="right_2" x="1823" y="1023" width="1" height="17" fill="black"/>
</g>
<g id="left_4">
<g id=".templates/base/door_2" clip-path="url(#clip1_1005_24299)">
<g id="Ellipse 1_2">
<mask id="path-22-outside-2_1005_24299" maskUnits="userSpaceOnUse" x="1732.98" y="933.023" width="91" height="91" fill="black">
<rect fill="white" x="1732.98" y="933.023" width="91" height="91"/>
<path d="M1822.98 1023C1822.98 1011.32 1820.68 999.745 1816.2 988.95C1811.73 978.155 1805.18 968.346 1796.92 960.084C1788.65 951.821 1778.85 945.267 1768.05 940.796C1757.25 936.324 1745.68 934.023 1734 934.023L1734 1023L1822.98 1023Z"/>
</mask>
<path d="M1822.98 1023C1822.98 1011.32 1820.68 999.745 1816.2 988.95C1811.73 978.155 1805.18 968.346 1796.92 960.084C1788.65 951.821 1778.85 945.267 1768.05 940.796C1757.25 936.324 1745.68 934.023 1734 934.023L1734 1023L1822.98 1023Z" fill="white"/>
<path d="M1822.98 1023C1822.98 1011.32 1820.68 999.745 1816.2 988.95C1811.73 978.155 1805.18 968.346 1796.92 960.084C1788.65 951.821 1778.85 945.267 1768.05 940.796C1757.25 936.324 1745.68 934.023 1734 934.023L1734 1023L1822.98 1023Z" stroke="black" stroke-width="2" mask="url(#path-22-outside-2_1005_24299)"/>
</g>
</g>
<rect id="Rectangle 2_2" x="1734" y="933" width="1" height="90" fill="black"/>
</g>
</g>
</g>
<g id="work-sleep/bed">
<g id=".templates/work-sleep/bed-template">
<g id="bed-drawer">
<rect x="-0.75" y="-0.75" width="259.5" height="319.5" transform="matrix(0 -1 -1 0 2508 753)" fill="white"/>
<rect x="-0.75" y="-0.75" width="259.5" height="319.5" transform="matrix(0 -1 -1 0 2508 753)" stroke="#444444" stroke-width="1.5"/>
</g>
<g id="mattress">
<rect x="-0.75" y="-0.75" width="238.5" height="298.5" rx="5.25" transform="matrix(0 -1 -1 0 2497.5 742.5)" fill="white"/>
<rect x="-0.75" y="-0.75" width="238.5" height="298.5" rx="5.25" transform="matrix(0 -1 -1 0 2497.5 742.5)" stroke="#444444" stroke-width="1.5"/>
</g>
<g id="pillow-left">
<rect x="-0.75" y="-0.75" width="94.5" height="82.5" rx="5.25" transform="matrix(0 -1 -1 0 2473.5 721.929)" fill="white"/>
<rect x="-0.75" y="-0.75" width="94.5" height="82.5" rx="5.25" transform="matrix(0 -1 -1 0 2473.5 721.929)" stroke="#444444" stroke-width="1.5"/>
</g>
<g id="pillow-right">
<rect x="-0.75" y="-0.75" width="94.5" height="82.5" rx="5.25" transform="matrix(0 -1 -1 0 2473.5 619.071)" fill="white"/>
<rect x="-0.75" y="-0.75" width="94.5" height="82.5" rx="5.25" transform="matrix(0 -1 -1 0 2473.5 619.071)" stroke="#444444" stroke-width="1.5"/>
</g>
<g id="blanket">
<path d="M2438.25 743.25V504.75H2205C2202.1 504.75 2199.75 507.101 2199.75 510V738C2199.75 740.899 2202.1 743.25 2205 743.25H2438.25Z" fill="white"/>
<path d="M2438.25 743.25V504.75H2205C2202.1 504.75 2199.75 507.101 2199.75 510V738C2199.75 740.899 2202.1 743.25 2205 743.25H2438.25Z" stroke="#444444" stroke-width="1.5"/>
</g>
</g>
</g>
<g id="room_5">
<g id="labels-baseboard_5">
<rect x="1839.36" y="1247.36" width="678.272" height="525.272" fill="white"/>
<rect x="1839.36" y="1247.36" width="678.272" height="525.272" stroke="#444444" stroke-width="15.2725"/>
</g>
</g>
<g id="work-sleep/bed_2">
<g id=".templates/work-sleep/bed-template_2">
<g id="mattress_2">
<rect x="2496.25" y="1543.75" width="208.5" height="298.5" rx="5.25" transform="rotate(90 2496.25 1543.75)" fill="white"/>
<rect x="2496.25" y="1543.75" width="208.5" height="298.5" rx="5.25" transform="rotate(90 2496.25 1543.75)" stroke="#444444" stroke-width="1.5"/>
</g>
<g id="pillow-left_2">
<rect x="2472.25" y="1561.75" width="82.5" height="82.5" rx="5.25" transform="rotate(90 2472.25 1561.75)" fill="white"/>
<rect x="2472.25" y="1561.75" width="82.5" height="82.5" rx="5.25" transform="rotate(90 2472.25 1561.75)" stroke="#444444" stroke-width="1.5"/>
</g>
<g id="pillow-right_2">
<rect x="2472.25" y="1651.75" width="82.5" height="82.5" rx="5.25" transform="rotate(90 2472.25 1651.75)" fill="white"/>
<rect x="2472.25" y="1651.75" width="82.5" height="82.5" rx="5.25" transform="rotate(90 2472.25 1651.75)" stroke="#444444" stroke-width="1.5"/>
</g>
<g id="blanket_2">
<path d="M2436.25 1543.75V1752.25H2203C2200.1 1752.25 2197.75 1749.9 2197.75 1747V1549C2197.75 1546.1 2200.1 1543.75 2203 1543.75H2436.25Z" fill="white"/>
<path d="M2436.25 1543.75V1752.25H2203C2200.1 1752.25 2197.75 1749.9 2197.75 1747V1549C2197.75 1546.1 2200.1 1543.75 2203 1543.75H2436.25Z" stroke="#444444" stroke-width="1.5"/>
</g>
</g>
</g>
<g id="room_6">
<g id="labels-baseboard_6">
<rect x="499.5" y="267.5" width="985" height="971" fill="white"/>
<rect x="499.5" y="267.5" width="985" height="971" stroke="#444444" stroke-width="17"/>
</g>
</g>
<g id="floor-plan/window">
<g id="window">
<g id="Frame 11">
<g id="baseboard">
<rect id="background_4" x="631" y="259" width="100" height="2" fill="white"/>
</g>
<g id="window-wall-thickness">
<g id=".templates/floor-plan/window-wall-thickness">
<rect id="background_5" x="631" y="261" width="100" height="17" fill="white"/>
</g>
</g>
</g>
<g id="arrow-top">
<g id="arrow-top_2" clip-path="url(#clip2_1005_24299)">
<g id="arrow">
<mask maskUnits="userSpaceOnUse" x="0" y="0" width="0" height="0" fill="black">
<rect fill="white" width="0" height="0"/>
</mask>
<path d="M681.5 272L682.943 269.5H680.057L681.5 272ZM681.5 261L680.057 263.5H682.943L681.5 261ZM681.75 269.75V263.25H681.25V269.75H681.75Z" fill="black" mask="url(#)"/>
</g>
</g>
</g>
<g id="window-component">
<g id="window-parts">
<g id="top-part">
<g id="window-rectangle">
<g id=".templates/floor-plan/window-line-template">
<rect width="100" height="3" transform="matrix(1 0 0 -1 631 268)" fill="white"/>
<rect id="window-line" x="0.5" y="-0.5" width="99" height="2" transform="matrix(1 0 0 -1 631 267)" stroke="black"/>
</g>
</g>
</g>
<g id="middle-part">
<g id="bottom">
<rect id="window-line_2" x="631.25" y="269.25" width="99.5" height="0.5" stroke="black" stroke-width="0.5" stroke-dasharray="0.3 0.5"/>
</g>
</g>
<g id="bottom-part">
<rect id="window-line_3" x="631.25" y="271.25" width="99.5" height="0.5" stroke="black" stroke-width="0.5" stroke-dasharray="5 4"/>
</g>
</g>
</g>
</g>
</g>
<g id="floor-plan/window_2">
<g id="window_2">
<g id="Frame 11_2">
<g id="baseboard_2">
<rect id="background_6" x="1154" y="258" width="100" height="2" fill="white"/>
</g>
<g id="window-wall-thickness_2">
<g id=".templates/floor-plan/window-wall-thickness_2">
<rect id="background_7" x="1154" y="260" width="100" height="17" fill="white"/>
</g>
</g>
</g>
<g id="arrow-top_3">
<g id="arrow-top_4" clip-path="url(#clip3_1005_24299)">
<g id="arrow_2">
<mask maskUnits="userSpaceOnUse" x="0" y="0" width="0" height="0" fill="black">
<rect fill="white" width="0" height="0"/>
</mask>
<path d="M1204.5 271L1205.94 268.5H1203.06L1204.5 271ZM1204.5 260L1203.06 262.5H1205.94L1204.5 260ZM1204.75 268.75V262.25H1204.25V268.75H1204.75Z" fill="black" mask="url(#)"/>
</g>
</g>
</g>
<g id="window-component_2">
<g id="window-parts_2">
<g id="top-part_2">
<g id="window-rectangle_2">
<g id=".templates/floor-plan/window-line-template_2">
<rect width="100" height="3" transform="matrix(1 0 0 -1 1154 267)" fill="white"/>
<rect id="window-line_4" x="0.5" y="-0.5" width="99" height="2" transform="matrix(1 0 0 -1 1154 266)" stroke="black"/>
</g>
</g>
</g>
<g id="middle-part_2">
<g id="bottom_2">
<rect id="window-line_5" x="1154.25" y="268.25" width="99.5" height="0.5" stroke="black" stroke-width="0.5" stroke-dasharray="0.3 0.5"/>
</g>
</g>
<g id="bottom-part_2">
<rect id="window-line_6" x="1154.25" y="270.25" width="99.5" height="0.5" stroke="black" stroke-width="0.5" stroke-dasharray="5 4"/>
</g>
</g>
</g>
</g>
</g>
<g id="floor-plan/window_3">
<g id="window_3">
<g id="Frame 11_3">
<g id="baseboard_3">
<rect id="background_8" x="2053" y="259" width="100" height="2" fill="white"/>
</g>
<g id="window-wall-thickness_3">
<g id=".templates/floor-plan/window-wall-thickness_3">
<rect id="background_9" x="2053" y="261" width="100" height="17" fill="white"/>
</g>
</g>
</g>
<g id="arrow-top_5">
<g id="arrow-top_6" clip-path="url(#clip4_1005_24299)">
<g id="arrow_3">
<mask maskUnits="userSpaceOnUse" x="0" y="0" width="0" height="0" fill="black">
<rect fill="white" width="0" height="0"/>
</mask>
<path d="M2103.5 272L2104.94 269.5H2102.06L2103.5 272ZM2103.5 261L2102.06 263.5H2104.94L2103.5 261ZM2103.75 269.75V263.25H2103.25V269.75H2103.75Z" fill="black" mask="url(#)"/>
</g>
</g>
</g>
<g id="window-component_3">
<g id="window-parts_3">
<g id="top-part_3">
<g id="window-rectangle_3">
<g id=".templates/floor-plan/window-line-template_3">
<rect width="100" height="3" transform="matrix(1 0 0 -1 2053 268)" fill="white"/>
<rect id="window-line_7" x="0.5" y="-0.5" width="99" height="2" transform="matrix(1 0 0 -1 2053 267)" stroke="black"/>
</g>
</g>
</g>
<g id="middle-part_3">
<g id="bottom_3">
<rect id="window-line_8" x="2053.25" y="269.25" width="99.5" height="0.5" stroke="black" stroke-width="0.5" stroke-dasharray="0.3 0.5"/>
</g>
</g>
<g id="bottom-part_3">
<rect id="window-line_9" x="2053.25" y="271.25" width="99.5" height="0.5" stroke="black" stroke-width="0.5" stroke-dasharray="5 4"/>
</g>
</g>
</g>
</g>
</g>
<g id="floor-plan/window_4">
<g id="window_4">
<g id="Frame 11_4">
<g id="baseboard_4">
<rect id="background_10" x="2529" y="491" width="240" height="2" transform="rotate(90 2529 491)" fill="white"/>
</g>
<g id="window-wall-thickness_4">
<g id=".templates/floor-plan/window-wall-thickness_4">
<rect id="background_11" x="2527" y="491" width="240" height="17" transform="rotate(90 2527 491)" fill="white"/>
</g>
</g>
</g>
<g id="arrow-top_7">
<g id="arrow-top_8" clip-path="url(#clip5_1005_24299)">
<g id="arrow_4">
<mask maskUnits="userSpaceOnUse" x="0" y="0" width="0" height="0" fill="black">
<rect fill="white" width="0" height="0"/>
</mask>
<path d="M2516 611.5L2518.5 612.943V610.057L2516 611.5ZM2527 611.5L2524.5 610.057V612.943L2527 611.5ZM2518.25 611.75H2524.75V611.25H2518.25V611.75Z" fill="black" mask="url(#)"/>
</g>
</g>
</g>
<g id="window-component_4">
<g id="window-parts_4">
<g id="top-part_4">
<g id="window-rectangle_4">
<g id=".templates/floor-plan/window-line-template_4">
<rect width="240" height="3" transform="matrix(0 1 1 0 2520 491)" fill="white"/>
<rect id="window-line_10" x="0.5" y="0.5" width="239" height="2" transform="matrix(0 1 1 0 2520 491)" stroke="black"/>
</g>
</g>
</g>
<g id="middle-part_4">
<g id="bottom_4">
<rect id="window-line_11" x="2518.75" y="491.25" width="239.5" height="0.5" transform="rotate(90 2518.75 491.25)" stroke="black" stroke-width="0.5" stroke-dasharray="0.3 0.5"/>
</g>
</g>
<g id="bottom-part_4">
<rect id="window-line_12" x="2516.75" y="491.25" width="239.5" height="0.5" transform="rotate(90 2516.75 491.25)" stroke="black" stroke-width="0.5" stroke-dasharray="5 4"/>
</g>
</g>
</g>
</g>
</g>
<g id="floor-plan/window_5">
<g id="window_5">
<g id="Frame 11_5">
<g id="baseboard_5">
<rect id="background_12" x="2527" y="1363" width="240" height="2" transform="rotate(90 2527 1363)" fill="white"/>
</g>
<g id="window-wall-thickness_5">
<g id=".templates/floor-plan/window-wall-thickness_5">
<rect id="background_13" x="2525" y="1363" width="240" height="17" transform="rotate(90 2525 1363)" fill="white"/>
</g>
</g>
</g>
<g id="arrow-top_9">
<g id="arrow-top_10" clip-path="url(#clip6_1005_24299)">
<g id="arrow_5">
<mask maskUnits="userSpaceOnUse" x="0" y="0" width="0" height="0" fill="black">
<rect fill="white" width="0" height="0"/>
</mask>
<path d="M2514 1483.5L2516.5 1484.94V1482.06L2514 1483.5ZM2525 1483.5L2522.5 1482.06V1484.94L2525 1483.5ZM2516.25 1483.75H2522.75V1483.25H2516.25V1483.75Z" fill="black" mask="url(#)"/>
</g>
</g>
</g>
<g id="window-component_5">
<g id="window-parts_5">
<g id="top-part_5">
<g id="window-rectangle_5">
<g id=".templates/floor-plan/window-line-template_5">
<rect width="240" height="3" transform="matrix(0 1 1 0 2518 1363)" fill="white"/>
<rect id="window-line_13" x="0.5" y="0.5" width="239" height="2" transform="matrix(0 1 1 0 2518 1363)" stroke="black"/>
</g>
</g>
</g>
<g id="middle-part_5">
<g id="bottom_5">
<rect id="window-line_14" x="2516.75" y="1363.25" width="239.5" height="0.5" transform="rotate(90 2516.75 1363.25)" stroke="black" stroke-width="0.5" stroke-dasharray="0.3 0.5"/>
</g>
</g>
<g id="bottom-part_5">
<rect id="window-line_15" x="2514.75" y="1363.25" width="239.5" height="0.5" transform="rotate(90 2514.75 1363.25)" stroke="black" stroke-width="0.5" stroke-dasharray="5 4"/>
</g>
</g>
</g>
</g>
</g>
<g id="floor-plan/window_6">
<g id="window_6">
<g id="Frame 11_6">
<g id="baseboard_6">
<rect id="background_14" width="173" height="2" transform="matrix(1 0 0 -1 1230 1784)" fill="white"/>
</g>
<g id="window-wall-thickness_6">
<g id=".templates/floor-plan/window-wall-thickness_6">
<rect id="background_15" width="173" height="17" transform="matrix(1 0 0 -1 1230 1782)" fill="white"/>
</g>
</g>
</g>
<g id="arrow-top_11">
<g id="arrow-top_12" clip-path="url(#clip7_1005_24299)">
<g id="arrow_6">
<mask maskUnits="userSpaceOnUse" x="0" y="0" width="0" height="0" fill="black">
<rect fill="white" width="0" height="0"/>
</mask>
<path d="M1317.5 1771L1318.94 1773.5H1316.06L1317.5 1771ZM1317.5 1782L1316.06 1779.5H1318.94L1317.5 1782ZM1317.75 1773.25V1779.75H1317.25V1773.25H1317.75Z" fill="black" mask="url(#)"/>
</g>
</g>
</g>
<g id="window-component_6">
<g id="window-parts_6">
<g id="top-part_6">
<g id="window-rectangle_6">
<g id=".templates/floor-plan/window-line-template_6">
<rect width="173" height="3" transform="translate(1230 1775)" fill="white"/>
<rect id="window-line_16" x="1230.5" y="1775.5" width="172" height="2" stroke="black"/>
</g>
</g>
</g>
<g id="middle-part_6">
<g id="bottom_6">
<rect id="window-line_17" x="0.25" y="-0.25" width="172.5" height="0.5" transform="matrix(1 0 0 -1 1230 1773.5)" stroke="black" stroke-width="0.5" stroke-dasharray="0.3 0.5"/>
</g>
</g>
<g id="bottom-part_6">
<rect id="window-line_18" x="0.25" y="-0.25" width="172.5" height="0.5" transform="matrix(1 0 0 -1 1230 1771.5)" stroke="black" stroke-width="0.5" stroke-dasharray="5 4"/>
</g>
</g>
</g>
</g>
</g>
<g id=".templates/lounge/sofa-template">
<g id="armrest">
<rect x="0.5" y="-0.5" width="27" height="99" transform="matrix(1 0 0 -1 778 933)" fill="white"/>
<rect x="0.5" y="-0.5" width="27" height="99" transform="matrix(1 0 0 -1 778 933)" stroke="#444444"/>
</g>
<g id="Frame 1">
<g id="armrest_2">
<rect x="0.5" y="-0.5" width="66" height="34" transform="matrix(1 0 0 -1 806 933)" fill="white"/>
<rect x="0.5" y="-0.5" width="66" height="34" transform="matrix(1 0 0 -1 806 933)" stroke="#444444"/>
</g>
<g id="armrest_3">
<rect x="0.5" y="-0.5" width="66" height="64" transform="matrix(1 0 0 -1 806 898)" fill="white"/>
<rect x="0.5" y="-0.5" width="66" height="64" transform="matrix(1 0 0 -1 806 898)" stroke="#444444"/>
</g>
</g>
<g id="Frame 2">
<g id="armrest_4">
<rect x="0.5" y="-0.5" width="66" height="34" transform="matrix(1 0 0 -1 873 933)" fill="white"/>
<rect x="0.5" y="-0.5" width="66" height="34" transform="matrix(1 0 0 -1 873 933)" stroke="#444444"/>
</g>
<g id="armrest_5">
<rect x="0.5" y="-0.5" width="66" height="64" transform="matrix(1 0 0 -1 873 898)" fill="white"/>
<rect x="0.5" y="-0.5" width="66" height="64" transform="matrix(1 0 0 -1 873 898)" stroke="#444444"/>
</g>
</g>
<g id="Frame 3">
<g id="armrest_6">
<rect x="0.5" y="-0.5" width="66" height="34" transform="matrix(1 0 0 -1 940 933)" fill="white"/>
<rect x="0.5" y="-0.5" width="66" height="34" transform="matrix(1 0 0 -1 940 933)" stroke="#444444"/>
</g>
<g id="armrest_7">
<rect x="0.5" y="-0.5" width="66" height="64" transform="matrix(1 0 0 -1 940 898)" fill="white"/>
<rect x="0.5" y="-0.5" width="66" height="64" transform="matrix(1 0 0 -1 940 898)" stroke="#444444"/>
</g>
</g>
<g id="Frame 4">
<g id="armrest_8">
<rect x="0.5" y="-0.5" width="66" height="34" transform="matrix(1 0 0 -1 1007 933)" fill="white"/>
<rect x="0.5" y="-0.5" width="66" height="34" transform="matrix(1 0 0 -1 1007 933)" stroke="#444444"/>
</g>
<g id="armrest_9">
<rect x="0.5" y="-0.5" width="66" height="64" transform="matrix(1 0 0 -1 1007 898)" fill="white"/>
<rect x="0.5" y="-0.5" width="66" height="64" transform="matrix(1 0 0 -1 1007 898)" stroke="#444444"/>
</g>
</g>
<g id="armrest_10">
<rect x="0.5" y="-0.5" width="27" height="99" transform="matrix(1 0 0 -1 1074 933)" fill="white"/>
<rect x="0.5" y="-0.5" width="27" height="99" transform="matrix(1 0 0 -1 1074 933)" stroke="#444444"/>
</g>
</g>
<g id=".templates/lounge/sofa-template_2">
<g id="armrest_11">
<rect x="-0.5" y="-0.5" width="27" height="99" transform="matrix(0 -1 -1 0 1264 763)" fill="white"/>
<rect x="-0.5" y="-0.5" width="27" height="99" transform="matrix(0 -1 -1 0 1264 763)" stroke="#444444"/>
</g>
<g id="Frame 1_2">
<g id="armrest_12">
<rect x="-0.5" y="-0.5" width="66" height="34" transform="matrix(0 -1 -1 0 1264 735)" fill="white"/>
<rect x="-0.5" y="-0.5" width="66" height="34" transform="matrix(0 -1 -1 0 1264 735)" stroke="#444444"/>
</g>
<g id="armrest_13">
<rect x="-0.5" y="-0.5" width="66" height="64" transform="matrix(0 -1 -1 0 1229 735)" fill="white"/>
<rect x="-0.5" y="-0.5" width="66" height="64" transform="matrix(0 -1 -1 0 1229 735)" stroke="#444444"/>
</g>
</g>
<g id="Frame 2_2">
<g id="armrest_14">
<rect x="-0.5" y="-0.5" width="66" height="34" transform="matrix(0 -1 -1 0 1264 668)" fill="white"/>
<rect x="-0.5" y="-0.5" width="66" height="34" transform="matrix(0 -1 -1 0 1264 668)" stroke="#444444"/>
</g>
<g id="armrest_15">
<rect x="-0.5" y="-0.5" width="66" height="64" transform="matrix(0 -1 -1 0 1229 668)" fill="white"/>
<rect x="-0.5" y="-0.5" width="66" height="64" transform="matrix(0 -1 -1 0 1229 668)" stroke="#444444"/>
</g>
</g>
<g id="Frame 3_2">
<g id="armrest_16">
<rect x="-0.5" y="-0.5" width="66" height="34" transform="matrix(0 -1 -1 0 1264 601)" fill="white"/>
<rect x="-0.5" y="-0.5" width="66" height="34" transform="matrix(0 -1 -1 0 1264 601)" stroke="#444444"/>
</g>
<g id="armrest_17">
<rect x="-0.5" y="-0.5" width="66" height="64" transform="matrix(0 -1 -1 0 1229 601)" fill="white"/>
<rect x="-0.5" y="-0.5" width="66" height="64" transform="matrix(0 -1 -1 0 1229 601)" stroke="#444444"/>
</g>
</g>
<g id="Frame 4_2">
<g id="armrest_18">
<rect x="-0.5" y="-0.5" width="66" height="34" transform="matrix(0 -1 -1 0 1264 534)" fill="white"/>
<rect x="-0.5" y="-0.5" width="66" height="34" transform="matrix(0 -1 -1 0 1264 534)" stroke="#444444"/>
</g>
<g id="armrest_19">
<rect x="-0.5" y="-0.5" width="66" height="64" transform="matrix(0 -1 -1 0 1229 534)" fill="white"/>
<rect x="-0.5" y="-0.5" width="66" height="64" transform="matrix(0 -1 -1 0 1229 534)" stroke="#444444"/>
</g>
</g>
<g id="armrest_20">
<rect x="-0.5" y="-0.5" width="27" height="99" transform="matrix(0 -1 -1 0 1264 467)" fill="white"/>
<rect x="-0.5" y="-0.5" width="27" height="99" transform="matrix(0 -1 -1 0 1264 467)" stroke="#444444"/>
</g>
</g>
<g id=".templates/floor-plan/steps-template" clip-path="url(#clip8_1005_24299)">
<g id="stairs-top-bottom">
<g id="step">
<rect x="1494.8" y="381.798" width="182.405" height="28.185" fill="white"/>
<rect x="1494.8" y="381.798" width="182.405" height="28.185" stroke="black" stroke-width="0.531792"/>
</g>
<g id="step_2">
<rect x="1494.8" y="410.514" width="182.405" height="28.185" fill="white"/>
<rect x="1494.8" y="410.514" width="182.405" height="28.185" stroke="black" stroke-width="0.531792"/>
</g>
<g id="step_3">
<rect x="1494.8" y="439.231" width="182.405" height="28.185" fill="white"/>
<rect x="1494.8" y="439.231" width="182.405" height="28.185" stroke="black" stroke-width="0.531792"/>
</g>
<g id="step_4">
<rect x="1494.8" y="467.948" width="182.405" height="28.185" fill="white"/>
<rect x="1494.8" y="467.948" width="182.405" height="28.185" stroke="black" stroke-width="0.531792"/>
</g>
<g id="step_5">
<rect x="1494.8" y="496.665" width="182.405" height="28.185" fill="white"/>
<rect x="1494.8" y="496.665" width="182.405" height="28.185" stroke="black" stroke-width="0.531792"/>
</g>
<g id="step_6">
<rect x="1494.8" y="525.382" width="182.405" height="28.185" fill="white"/>
<rect x="1494.8" y="525.382" width="182.405" height="28.185" stroke="black" stroke-width="0.531792"/>
</g>
<g id="step_7">
<rect x="1494.8" y="554.098" width="182.405" height="28.185" fill="white"/>
<rect x="1494.8" y="554.098" width="182.405" height="28.185" stroke="black" stroke-width="0.531792"/>
</g>
<g id="step_8">
<rect x="1494.8" y="582.815" width="182.405" height="28.185" fill="white"/>
<rect x="1494.8" y="582.815" width="182.405" height="28.185" stroke="black" stroke-width="0.531792"/>
</g>
<g id="step_9">
<rect x="1494.8" y="611.532" width="182.405" height="28.185" fill="white"/>
<rect x="1494.8" y="611.532" width="182.405" height="28.185" stroke="black" stroke-width="0.531792"/>
</g>
<g id="step_10">
<rect x="1494.8" y="640.249" width="182.405" height="28.185" fill="white"/>
<rect x="1494.8" y="640.249" width="182.405" height="28.185" stroke="black" stroke-width="0.531792"/>
</g>
<g id="step_11">
<rect x="1494.8" y="668.965" width="182.405" height="28.185" fill="white"/>
<rect x="1494.8" y="668.965" width="182.405" height="28.185" stroke="black" stroke-width="0.531792"/>
</g>
<g id="step_12">
<rect x="1494.8" y="697.682" width="182.405" height="28.185" fill="white"/>
<rect x="1494.8" y="697.682" width="182.405" height="28.185" stroke="black" stroke-width="0.531792"/>
</g>
<g id="step_13">
<rect x="1494.8" y="726.399" width="182.405" height="28.185" fill="white"/>
<rect x="1494.8" y="726.399" width="182.405" height="28.185" stroke="black" stroke-width="0.531792"/>
</g>
<g id="step_14">
<rect x="1494.8" y="755.116" width="182.405" height="28.185" fill="white"/>
<rect x="1494.8" y="755.116" width="182.405" height="28.185" stroke="black" stroke-width="0.531792"/>
</g>
<g id="step_15">
<rect x="1494.8" y="783.832" width="182.405" height="28.185" fill="white"/>
<rect x="1494.8" y="783.832" width="182.405" height="28.185" stroke="black" stroke-width="0.531792"/>
</g>
<g id="step_16">
<rect x="1494.8" y="812.549" width="182.405" height="28.185" fill="white"/>
<rect x="1494.8" y="812.549" width="182.405" height="28.185" stroke="black" stroke-width="0.531792"/>
</g>
<g id="step_17">
<rect x="1494.8" y="841.266" width="182.405" height="28.185" fill="white"/>
<rect x="1494.8" y="841.266" width="182.405" height="28.185" stroke="black" stroke-width="0.531792"/>
</g>
<g id="step_18">
<rect x="1494.8" y="869.983" width="182.405" height="28.185" fill="white"/>
<rect x="1494.8" y="869.983" width="182.405" height="28.185" stroke="black" stroke-width="0.531792"/>
</g>
<g id="step_19">
<rect x="1494.8" y="898.699" width="182.405" height="28.185" fill="white"/>
<rect x="1494.8" y="898.699" width="182.405" height="28.185" stroke="black" stroke-width="0.531792"/>
</g>
<g id="step_20">
<rect x="1494.8" y="927.416" width="182.405" height="28.185" fill="white"/>
<rect x="1494.8" y="927.416" width="182.405" height="28.185" stroke="black" stroke-width="0.531792"/>
</g>
</g>
<g id="step-top">
<rect x="1494.66" y="381.133" width="182.671" height="0.265896" fill="white"/>
<rect x="1494.66" y="381.133" width="182.671" height="0.265896" stroke="black" stroke-width="0.265896"/>
</g>
<g id="step-bottom">
<rect x="1494.66" y="1022.6" width="182.671" height="0.265896" fill="white"/>
<rect x="1494.66" y="1022.6" width="182.671" height="0.265896" stroke="black" stroke-width="0.265896"/>
</g>
<g id="step-left">
<rect x="1494.13" y="381.133" width="0.265896" height="641.734" fill="white"/>
<rect x="1494.13" y="381.133" width="0.265896" height="641.734" stroke="black" stroke-width="0.265896"/>
</g>
<g id="step-right">
<rect x="1677.6" y="381.133" width="0.265896" height="641.734" fill="white"/>
<rect x="1677.6" y="381.133" width="0.265896" height="641.734" stroke="black" stroke-width="0.265896"/>
</g>
</g>
<g id=".templates/floor-plan/arrow-top">
<g id="arrow-top_13" clip-path="url(#clip9_1005_24299)">
<g id="arrow_7">
<mask maskUnits="userSpaceOnUse" x="0" y="0" width="0" height="0" fill="black">
<rect fill="white" width="0" height="0"/>
</mask>
<path d="M1582.38 1038.75L1597.17 1013.12H1567.58L1582.38 1038.75ZM1582.38 926L1567.58 951.625H1597.17L1582.38 926ZM1584.94 1015.69V949.062H1579.81V1015.69H1584.94Z" fill="black" mask="url(#)"/>
</g>
</g>
</g>
<g id=".templates/floor-plan/room">
<g id="labels-baseboard_7">
<rect x="1485.5" y="267.5" width="203" height="104" fill="white"/>
<rect x="1485.5" y="267.5" width="203" height="104" stroke="#444444" stroke-width="17"/>
</g>
</g>
<g id=".templates/floor-plan/glass_2">
<rect id="background_16" x="1494" y="363" width="186" height="18" fill="white"/>
</g>
<g id=".templates/floor-plan/glass_3">
<rect id="background_17" x="508" y="1219" width="458" height="36" fill="white"/>
</g>
<g id=".templates/floor-plan/glass_4">
<rect id="background_18" x="1476" y="1230" width="190" height="20" transform="rotate(-90 1476 1230)" fill="white"/>
</g>
<g id="floor-plan/door_3">
<g id="door-template_3">
<g id="door-wall-thickness_3">
<g id="glass-type_3">
<rect id="background_19" x="1437" y="276" width="90" height="17" transform="rotate(180 1437 276)" fill="white"/>
</g>
<rect id="door_6" x="1436.5" y="275.5" width="89" height="16" transform="rotate(180 1436.5 275.5)" stroke="black" stroke-dasharray="4 16"/>
<rect id="left_5" x="1437" y="276" width="1" height="17" transform="rotate(180 1437 276)" fill="black"/>
<rect id="right_3" x="1348" y="276" width="1" height="17" transform="rotate(180 1348 276)" fill="black"/>
</g>
<g id="left_6">
<g id=".templates/base/door_3" clip-path="url(#clip10_1005_24299)">
<g id="Ellipse 1_3">
<mask id="path-131-outside-3_1005_24299" maskUnits="userSpaceOnUse" x="1347.02" y="274.977" width="91" height="91" fill="black">
<rect fill="white" x="1347.02" y="274.977" width="91" height="91"/>
<path d="M1348.02 276C1348.02 287.685 1350.32 299.255 1354.8 310.05C1359.27 320.845 1365.82 330.654 1374.08 338.916C1382.35 347.179 1392.15 353.733 1402.95 358.204C1413.75 362.676 1425.32 364.977 1437 364.977L1437 276L1348.02 276Z"/>
</mask>
<path d="M1348.02 276C1348.02 287.685 1350.32 299.255 1354.8 310.05C1359.27 320.845 1365.82 330.654 1374.08 338.916C1382.35 347.179 1392.15 353.733 1402.95 358.204C1413.75 362.676 1425.32 364.977 1437 364.977L1437 276L1348.02 276Z" fill="white"/>
<path d="M1348.02 276C1348.02 287.685 1350.32 299.255 1354.8 310.05C1359.27 320.845 1365.82 330.654 1374.08 338.916C1382.35 347.179 1392.15 353.733 1402.95 358.204C1413.75 362.676 1425.32 364.977 1437 364.977L1437 276L1348.02 276Z" stroke="black" stroke-width="2" mask="url(#path-131-outside-3_1005_24299)"/>
</g>
</g>
<rect id="Rectangle 2_3" x="1437" y="366" width="1" height="90" transform="rotate(180 1437 366)" fill="black"/>
</g>
</g>
</g>
<g id="floor-plan/door_4">
<g id="door-template_4">
<g id="door-wall-thickness_4">
<g id="glass-type_4">
<rect id="background_20" width="90" height="17" transform="matrix(-1 0 0 1 1099 1765)" fill="white"/>
</g>
<rect id="door_7" x="-0.5" y="0.5" width="89" height="16" transform="matrix(-1 0 0 1 1098 1765)" stroke="black" stroke-dasharray="4 16"/>
<rect id="left_7" width="1" height="17" transform="matrix(-1 0 0 1 1099 1765)" fill="black"/>
<rect id="right_4" width="1" height="17" transform="matrix(-1 0 0 1 1010 1765)" fill="black"/>
</g>
<g id="left_8">
<g id=".templates/base/door_4" clip-path="url(#clip11_1005_24299)">
<g id="Ellipse 1_4">
<mask id="path-137-outside-4_1005_24299" maskUnits="userSpaceOnUse" x="1009.02" y="1675.02" width="91" height="91" fill="black">
<rect fill="white" x="1009.02" y="1675.02" width="91" height="91"/>
<path d="M1010.02 1765C1010.02 1753.32 1012.32 1741.75 1016.8 1730.95C1021.27 1720.15 1027.82 1710.35 1036.08 1702.08C1044.35 1693.82 1054.15 1687.27 1064.95 1682.8C1075.75 1678.32 1087.32 1676.02 1099 1676.02L1099 1765L1010.02 1765Z"/>
</mask>
<path d="M1010.02 1765C1010.02 1753.32 1012.32 1741.75 1016.8 1730.95C1021.27 1720.15 1027.82 1710.35 1036.08 1702.08C1044.35 1693.82 1054.15 1687.27 1064.95 1682.8C1075.75 1678.32 1087.32 1676.02 1099 1676.02L1099 1765L1010.02 1765Z" fill="white"/>
<path d="M1010.02 1765C1010.02 1753.32 1012.32 1741.75 1016.8 1730.95C1021.27 1720.15 1027.82 1710.35 1036.08 1702.08C1044.35 1693.82 1054.15 1687.27 1064.95 1682.8C1075.75 1678.32 1087.32 1676.02 1099 1676.02L1099 1765L1010.02 1765Z" stroke="black" stroke-width="2" mask="url(#path-137-outside-4_1005_24299)"/>
</g>
</g>
<rect id="Rectangle 2_4" width="1" height="90" transform="matrix(-1 0 0 1 1099 1675)" fill="black"/>
</g>
</g>
</g>
<g id="kitchen/cooking-top">
<g id="cooking-top">
<rect x="-0.75" y="-0.75" width="88.5" height="75" rx="2.25" transform="matrix(0 -1 -1 0 1477.5 1541)" fill="white"/>
<rect x="-0.75" y="-0.75" width="88.5" height="75" rx="2.25" transform="matrix(0 -1 -1 0 1477.5 1541)" stroke="#444444" stroke-width="1.5"/>
</g>
<g id="double-plate">
<g id="plate">
<rect x="-0.75" y="-0.75" width="25.5" height="25.5" rx="12.75" transform="matrix(0 -1 -1 0 1470 1529)" fill="white"/>
<rect x="-0.75" y="-0.75" width="25.5" height="25.5" rx="12.75" transform="matrix(0 -1 -1 0 1470 1529)" stroke="#444444" stroke-width="1.5"/>
</g>
<g id="plate_2">
<rect x="-0.75" y="-0.75" width="16.5" height="16.5" rx="8.25" transform="matrix(0 -1 -1 0 1465.5 1524.5)" fill="white"/>
<rect x="-0.75" y="-0.75" width="16.5" height="16.5" rx="8.25" transform="matrix(0 -1 -1 0 1465.5 1524.5)" stroke="#444444" stroke-width="1.5"/>
</g>
</g>
<g id="double-plate_2">
<g id="plate_3">
<rect x="-0.75" y="-0.75" width="25.5" height="25.5" rx="12.75" transform="matrix(0 -1 -1 0 1435.5 1490)" fill="white"/>
<rect x="-0.75" y="-0.75" width="25.5" height="25.5" rx="12.75" transform="matrix(0 -1 -1 0 1435.5 1490)" stroke="#444444" stroke-width="1.5"/>
</g>
<g id="plate_4">
<rect x="-0.75" y="-0.75" width="16.5" height="16.5" rx="8.25" transform="matrix(0 -1 -1 0 1431 1485.5)" fill="white"/>
<rect x="-0.75" y="-0.75" width="16.5" height="16.5" rx="8.25" transform="matrix(0 -1 -1 0 1431 1485.5)" stroke="#444444" stroke-width="1.5"/>
</g>
</g>
<g id="plate_5">
<rect x="-0.75" y="-0.75" width="19.5" height="19.5" rx="9.75" transform="matrix(0 -1 -1 0 1432.5 1526)" fill="white"/>
<rect x="-0.75" y="-0.75" width="19.5" height="19.5" rx="9.75" transform="matrix(0 -1 -1 0 1432.5 1526)" stroke="#444444" stroke-width="1.5"/>
</g>
<g id="plate_6">
<rect x="-0.75" y="-0.75" width="19.5" height="19.5" rx="9.75" transform="matrix(0 -1 -1 0 1467 1487)" fill="white"/>
<rect x="-0.75" y="-0.75" width="19.5" height="19.5" rx="9.75" transform="matrix(0 -1 -1 0 1467 1487)" stroke="#444444" stroke-width="1.5"/>
</g>
</g>
<g id=".templates/kitchen/oven">
<g id="oven">
<rect x="1313.75" y="1246.75" width="88.5" height="88.5" fill="white"/>
<path id="name" d="M1342.75 1277.63V1277.46C1342.75 1276.89 1342.83 1276.36 1343 1275.87C1343.17 1275.37 1343.41 1274.95 1343.72 1274.59C1344.03 1274.22 1344.41 1273.94 1344.85 1273.74C1345.3 1273.53 1345.8 1273.43 1346.35 1273.43C1346.9 1273.43 1347.4 1273.53 1347.85 1273.74C1348.3 1273.94 1348.68 1274.22 1348.99 1274.59C1349.31 1274.95 1349.55 1275.37 1349.72 1275.87C1349.88 1276.36 1349.97 1276.89 1349.97 1277.46V1277.63C1349.97 1278.2 1349.88 1278.73 1349.72 1279.21C1349.55 1279.7 1349.31 1280.13 1348.99 1280.5C1348.68 1280.86 1348.3 1281.14 1347.86 1281.35C1347.42 1281.55 1346.92 1281.65 1346.36 1281.65C1345.81 1281.65 1345.3 1281.55 1344.86 1281.35C1344.42 1281.14 1344.04 1280.86 1343.72 1280.5C1343.41 1280.13 1343.17 1279.7 1343 1279.21C1342.83 1278.73 1342.75 1278.2 1342.75 1277.63ZM1344.11 1277.46V1277.63C1344.11 1278.02 1344.15 1278.39 1344.25 1278.75C1344.34 1279.09 1344.48 1279.4 1344.66 1279.67C1344.85 1279.94 1345.09 1280.15 1345.37 1280.31C1345.66 1280.46 1345.99 1280.53 1346.36 1280.53C1346.73 1280.53 1347.06 1280.46 1347.34 1280.31C1347.62 1280.15 1347.85 1279.94 1348.04 1279.67C1348.22 1279.4 1348.36 1279.09 1348.46 1278.75C1348.55 1278.39 1348.6 1278.02 1348.6 1277.63V1277.46C1348.6 1277.07 1348.55 1276.7 1348.46 1276.35C1348.36 1276 1348.22 1275.69 1348.03 1275.42C1347.85 1275.15 1347.61 1274.93 1347.33 1274.78C1347.05 1274.62 1346.72 1274.54 1346.35 1274.54C1345.98 1274.54 1345.65 1274.62 1345.37 1274.78C1345.09 1274.93 1344.85 1275.15 1344.66 1275.42C1344.48 1275.69 1344.34 1276 1344.25 1276.35C1344.15 1276.7 1344.11 1277.07 1344.11 1277.46ZM1353.96 1280.28L1356.12 1273.58H1357.51L1354.66 1281.5H1353.75L1353.96 1280.28ZM1352.15 1273.58L1354.38 1280.31L1354.54 1281.5H1353.63L1350.76 1273.58H1352.15ZM1362 1281.65C1361.45 1281.65 1360.95 1281.55 1360.5 1281.37C1360.05 1281.18 1359.67 1280.91 1359.35 1280.57C1359.03 1280.23 1358.79 1279.82 1358.62 1279.35C1358.44 1278.89 1358.36 1278.37 1358.36 1277.82V1277.51C1358.36 1276.86 1358.45 1276.29 1358.64 1275.79C1358.83 1275.28 1359.09 1274.85 1359.42 1274.5C1359.75 1274.15 1360.12 1273.88 1360.53 1273.7C1360.95 1273.52 1361.38 1273.43 1361.82 1273.43C1362.39 1273.43 1362.88 1273.53 1363.29 1273.72C1363.7 1273.92 1364.04 1274.19 1364.31 1274.54C1364.57 1274.89 1364.77 1275.3 1364.89 1275.77C1365.02 1276.24 1365.08 1276.75 1365.08 1277.31V1277.92H1359.16V1276.81H1363.73V1276.71C1363.71 1276.36 1363.63 1276.02 1363.51 1275.68C1363.39 1275.35 1363.19 1275.08 1362.92 1274.86C1362.65 1274.65 1362.29 1274.54 1361.82 1274.54C1361.52 1274.54 1361.23 1274.61 1360.97 1274.74C1360.71 1274.87 1360.49 1275.06 1360.31 1275.31C1360.12 1275.56 1359.98 1275.88 1359.88 1276.24C1359.77 1276.61 1359.72 1277.03 1359.72 1277.51V1277.82C1359.72 1278.19 1359.77 1278.55 1359.88 1278.88C1359.98 1279.21 1360.14 1279.49 1360.34 1279.74C1360.54 1279.99 1360.79 1280.19 1361.08 1280.33C1361.37 1280.47 1361.7 1280.54 1362.07 1280.54C1362.55 1280.54 1362.96 1280.44 1363.29 1280.25C1363.62 1280.05 1363.91 1279.79 1364.16 1279.46L1364.98 1280.12C1364.81 1280.37 1364.59 1280.62 1364.33 1280.86C1364.06 1281.09 1363.74 1281.28 1363.35 1281.43C1362.97 1281.57 1362.52 1281.65 1362 1281.65ZM1368.02 1275.27V1281.5H1366.66V1273.58H1367.95L1368.02 1275.27ZM1367.7 1277.24L1367.13 1277.22C1367.14 1276.67 1367.22 1276.17 1367.38 1275.71C1367.53 1275.25 1367.75 1274.85 1368.03 1274.51C1368.32 1274.16 1368.65 1273.9 1369.04 1273.71C1369.44 1273.52 1369.88 1273.43 1370.36 1273.43C1370.75 1273.43 1371.1 1273.48 1371.41 1273.59C1371.72 1273.69 1371.99 1273.86 1372.21 1274.09C1372.43 1274.32 1372.6 1274.62 1372.72 1274.98C1372.84 1275.34 1372.9 1275.78 1372.9 1276.31V1281.5H1371.54V1276.29C1371.54 1275.88 1371.47 1275.55 1371.35 1275.3C1371.23 1275.04 1371.05 1274.86 1370.82 1274.75C1370.58 1274.63 1370.29 1274.57 1369.95 1274.57C1369.62 1274.57 1369.31 1274.64 1369.03 1274.78C1368.76 1274.93 1368.52 1275.12 1368.32 1275.37C1368.12 1275.62 1367.97 1275.9 1367.86 1276.23C1367.75 1276.54 1367.7 1276.88 1367.7 1277.24Z" fill="black"/>
<path id="dimensions" d="M1351.85 1309.82C1351.85 1309.66 1351.81 1309.52 1351.74 1309.38C1351.68 1309.25 1351.54 1309.12 1351.33 1309.02C1351.12 1308.9 1350.81 1308.8 1350.39 1308.72C1350.04 1308.65 1349.72 1308.56 1349.43 1308.46C1349.15 1308.36 1348.91 1308.23 1348.71 1308.09C1348.52 1307.95 1348.37 1307.78 1348.26 1307.58C1348.16 1307.38 1348.1 1307.16 1348.1 1306.89C1348.1 1306.64 1348.16 1306.41 1348.27 1306.19C1348.38 1305.96 1348.54 1305.77 1348.74 1305.59C1348.95 1305.42 1349.2 1305.29 1349.49 1305.19C1349.78 1305.09 1350.1 1305.04 1350.45 1305.04C1350.96 1305.04 1351.39 1305.13 1351.75 1305.31C1352.11 1305.49 1352.39 1305.73 1352.58 1306.03C1352.77 1306.33 1352.87 1306.66 1352.87 1307.02H1351.78C1351.78 1306.85 1351.73 1306.68 1351.62 1306.51C1351.52 1306.35 1351.37 1306.21 1351.17 1306.1C1350.98 1305.99 1350.74 1305.93 1350.45 1305.93C1350.15 1305.93 1349.91 1305.98 1349.72 1306.07C1349.54 1306.16 1349.4 1306.28 1349.32 1306.42C1349.23 1306.56 1349.19 1306.71 1349.19 1306.87C1349.19 1306.98 1349.21 1307.09 1349.25 1307.18C1349.29 1307.27 1349.37 1307.36 1349.47 1307.43C1349.58 1307.51 1349.73 1307.58 1349.92 1307.64C1350.11 1307.71 1350.36 1307.78 1350.65 1307.84C1351.17 1307.96 1351.6 1308.1 1351.94 1308.27C1352.27 1308.43 1352.52 1308.63 1352.69 1308.87C1352.85 1309.11 1352.93 1309.4 1352.93 1309.74C1352.93 1310.01 1352.87 1310.27 1352.76 1310.5C1352.64 1310.73 1352.48 1310.93 1352.26 1311.1C1352.04 1311.26 1351.79 1311.39 1351.48 1311.48C1351.19 1311.57 1350.85 1311.62 1350.48 1311.62C1349.92 1311.62 1349.45 1311.52 1349.06 1311.32C1348.68 1311.12 1348.38 1310.86 1348.19 1310.54C1347.99 1310.23 1347.89 1309.89 1347.89 1309.54H1348.98C1348.99 1309.84 1349.08 1310.08 1349.23 1310.25C1349.39 1310.42 1349.58 1310.55 1349.81 1310.62C1350.04 1310.69 1350.26 1310.73 1350.48 1310.73C1350.78 1310.73 1351.03 1310.69 1351.23 1310.61C1351.43 1310.53 1351.58 1310.42 1351.69 1310.29C1351.79 1310.15 1351.85 1309.99 1351.85 1309.82ZM1355.53 1305.16V1311.5H1354.44V1305.16H1355.53ZM1354.36 1303.48C1354.36 1303.3 1354.41 1303.15 1354.52 1303.03C1354.63 1302.91 1354.79 1302.85 1355 1302.85C1355.21 1302.85 1355.37 1302.91 1355.47 1303.03C1355.59 1303.15 1355.64 1303.3 1355.64 1303.48C1355.64 1303.65 1355.59 1303.79 1355.47 1303.91C1355.37 1304.03 1355.21 1304.09 1355 1304.09C1354.79 1304.09 1354.63 1304.03 1354.52 1303.91C1354.41 1303.79 1354.36 1303.65 1354.36 1303.48ZM1362 1310.61V1311.5H1357.38V1310.61H1362ZM1361.83 1305.93L1357.63 1311.5H1356.97V1310.7L1361.13 1305.16H1361.83V1305.93ZM1361.35 1305.16V1306.06H1357.02V1305.16H1361.35ZM1365.76 1311.62C1365.32 1311.62 1364.92 1311.54 1364.56 1311.39C1364.21 1311.24 1363.9 1311.03 1363.64 1310.76C1363.39 1310.48 1363.19 1310.16 1363.06 1309.78C1362.92 1309.41 1362.85 1309 1362.85 1308.55V1308.31C1362.85 1307.79 1362.93 1307.33 1363.08 1306.93C1363.23 1306.52 1363.44 1306.18 1363.7 1305.9C1363.96 1305.62 1364.26 1305.4 1364.59 1305.26C1364.92 1305.12 1365.27 1305.04 1365.62 1305.04C1366.08 1305.04 1366.47 1305.12 1366.79 1305.28C1367.13 1305.43 1367.4 1305.65 1367.61 1305.93C1367.82 1306.21 1367.98 1306.54 1368.08 1306.92C1368.18 1307.29 1368.23 1307.7 1368.23 1308.15V1308.63H1363.5V1307.75H1367.15V1307.67C1367.13 1307.39 1367.07 1307.11 1366.97 1306.85C1366.87 1306.58 1366.72 1306.36 1366.5 1306.19C1366.29 1306.02 1365.99 1305.93 1365.62 1305.93C1365.38 1305.93 1365.15 1305.99 1364.94 1306.09C1364.74 1306.19 1364.56 1306.35 1364.41 1306.55C1364.26 1306.75 1364.15 1307 1364.06 1307.29C1363.98 1307.59 1363.94 1307.92 1363.94 1308.31V1308.55C1363.94 1308.85 1363.98 1309.14 1364.06 1309.4C1364.15 1309.66 1364.27 1309.89 1364.43 1310.09C1364.6 1310.29 1364.79 1310.45 1365.03 1310.56C1365.26 1310.68 1365.53 1310.73 1365.82 1310.73C1366.21 1310.73 1366.53 1310.65 1366.79 1310.5C1367.06 1310.34 1367.29 1310.13 1367.49 1309.87L1368.15 1310.39C1368.01 1310.6 1367.84 1310.8 1367.63 1310.98C1367.42 1311.17 1367.16 1311.32 1366.85 1311.44C1366.54 1311.56 1366.18 1311.62 1365.76 1311.62Z" fill="black"/>
<rect x="1313.75" y="1246.75" width="88.5" height="88.5" stroke="#444444" stroke-width="1.5"/>
</g>
<g id="door_8">
<rect x="1313.38" y="1325.88" width="89.25" height="0.75" fill="white"/>
<rect x="1313.38" y="1325.88" width="89.25" height="0.75" stroke="#444444" stroke-width="0.75"/>
</g>
</g>
<g id=".templates/kitchen/cupboards-counter-template_4">
<g id="counter_4">
<rect x="1496.5" y="1521.5" width="274" height="80" transform="rotate(-90 1496.5 1521.5)" fill="white"/>
<rect x="1496.5" y="1521.5" width="274" height="80" transform="rotate(-90 1496.5 1521.5)" stroke="#444444"/>
</g>
<g id="door_9">
<rect x="1570.25" y="1521.75" width="274.5" height="0.5" transform="matrix(0 -1 1 0 48.5 3092)" fill="white"/>
<rect x="1570.25" y="1521.75" width="274.5" height="0.5" transform="matrix(0 -1 1 0 48.5 3092)" stroke="#444444" stroke-width="0.5"/>
</g>
</g>
<g id="kitchen/sink">
<g id=".templates/kitchen/sink">
<g id="sink">
<rect x="1236" y="1669" width="168" height="94" rx="3" fill="white"/>
<g id=".templates/kitchen/sink-template">
<g id="sink-1">
<rect x="1244" y="1677" width="68" height="78" rx="15" fill="white"/>
<rect x="1244" y="1677" width="68" height="78" rx="15" stroke="#444444" stroke-width="2"/>
</g>
<g id="drain">
<rect x="1290" y="1709" width="14" height="14" rx="7" fill="white"/>
<rect x="1290" y="1709" width="14" height="14" rx="7" stroke="#444444" stroke-width="2"/>
</g>
</g>
<g id=".templates/kitchen/draining-grid">
<g id=".templates/kitchen/draining-grid-template">
<g id="floor-plan/basic-elements">
<rect x="1321.8" y="1683.8" width="74.4" height="4.4" rx="2.2" fill="white"/>
<rect x="1321.8" y="1683.8" width="74.4" height="4.4" rx="2.2" stroke="#444444" stroke-width="1.6"/>
</g>
<g id="floor-plan/basic-elements_2">
<rect x="1321.8" y="1693.8" width="74.4" height="4.4" rx="2.2" fill="white"/>
<rect x="1321.8" y="1693.8" width="74.4" height="4.4" rx="2.2" stroke="#444444" stroke-width="1.6"/>
</g>
<g id="floor-plan/basic-elements_3">
<rect x="1321.8" y="1703.8" width="74.4" height="4.4" rx="2.2" fill="white"/>
<rect x="1321.8" y="1703.8" width="74.4" height="4.4" rx="2.2" stroke="#444444" stroke-width="1.6"/>
</g>
<g id="floor-plan/basic-elements_4">
<rect x="1321.8" y="1713.8" width="74.4" height="4.4" rx="2.2" fill="white"/>
<rect x="1321.8" y="1713.8" width="74.4" height="4.4" rx="2.2" stroke="#444444" stroke-width="1.6"/>
</g>
<g id="floor-plan/basic-elements_5">
<rect x="1321.8" y="1723.8" width="74.4" height="4.4" rx="2.2" fill="white"/>
<rect x="1321.8" y="1723.8" width="74.4" height="4.4" rx="2.2" stroke="#444444" stroke-width="1.6"/>
</g>
<g id="floor-plan/basic-elements_6">
<rect x="1321.8" y="1733.8" width="74.4" height="4.4" rx="2.2" fill="white"/>
<rect x="1321.8" y="1733.8" width="74.4" height="4.4" rx="2.2" stroke="#444444" stroke-width="1.6"/>
</g>
<g id="floor-plan/basic-elements_7">
<rect x="1321.8" y="1743.8" width="74.4" height="4.4" rx="2.2" fill="white"/>
<rect x="1321.8" y="1743.8" width="74.4" height="4.4" rx="2.2" stroke="#444444" stroke-width="1.6"/>
</g>
</g>
</g>
<rect x="1236" y="1669" width="168" height="94" rx="3" stroke="#444444" stroke-width="2"/>
</g>
</g>
</g>
<g id="kitchen/fridge">
<g id="fridge">
<g id="fridge_2">
<rect x="1125.75" y="1675.75" width="88.5" height="88.5" fill="white"/>
<path id="name_2" d="M1153.66 1725H1152.3V1716.24C1152.3 1715.67 1152.41 1715.19 1152.61 1714.8C1152.82 1714.4 1153.12 1714.1 1153.51 1713.9C1153.9 1713.7 1154.37 1713.6 1154.9 1713.6C1155.06 1713.6 1155.22 1713.61 1155.37 1713.63C1155.53 1713.65 1155.69 1713.67 1155.84 1713.71L1155.77 1714.82C1155.67 1714.79 1155.55 1714.78 1155.42 1714.77C1155.29 1714.76 1155.16 1714.75 1155.04 1714.75C1154.75 1714.75 1154.5 1714.81 1154.29 1714.93C1154.08 1715.04 1153.93 1715.21 1153.82 1715.43C1153.71 1715.65 1153.66 1715.92 1153.66 1716.24V1725ZM1155.34 1717.08V1718.12H1151.05V1717.08H1155.34ZM1158.21 1718.32V1725H1156.85V1717.08H1158.17L1158.21 1718.32ZM1160.68 1717.03L1160.68 1718.29C1160.56 1718.27 1160.46 1718.25 1160.35 1718.25C1160.26 1718.24 1160.14 1718.23 1160.02 1718.23C1159.7 1718.23 1159.43 1718.28 1159.19 1718.38C1158.95 1718.48 1158.75 1718.61 1158.58 1718.79C1158.42 1718.96 1158.28 1719.17 1158.19 1719.42C1158.09 1719.66 1158.03 1719.92 1158 1720.21L1157.62 1720.43C1157.62 1719.95 1157.67 1719.5 1157.76 1719.08C1157.86 1718.66 1158.01 1718.29 1158.21 1717.97C1158.41 1717.64 1158.66 1717.39 1158.97 1717.21C1159.28 1717.02 1159.65 1716.93 1160.08 1716.93C1160.18 1716.93 1160.29 1716.94 1160.42 1716.97C1160.55 1716.98 1160.63 1717.01 1160.68 1717.03ZM1163.41 1717.08V1725H1162.05V1717.08H1163.41ZM1161.94 1714.97C1161.94 1714.75 1162.01 1714.57 1162.14 1714.42C1162.28 1714.27 1162.48 1714.19 1162.74 1714.19C1163 1714.19 1163.2 1714.27 1163.33 1714.42C1163.48 1714.57 1163.55 1714.75 1163.55 1714.97C1163.55 1715.18 1163.48 1715.36 1163.33 1715.52C1163.2 1715.66 1163 1715.73 1162.74 1715.73C1162.48 1715.73 1162.28 1715.66 1162.14 1715.52C1162.01 1715.36 1161.94 1715.18 1161.94 1714.97ZM1170.58 1723.46V1713.75H1171.94V1725H1170.7L1170.58 1723.46ZM1165.25 1721.13V1720.97C1165.25 1720.37 1165.32 1719.82 1165.47 1719.32C1165.62 1718.83 1165.83 1718.4 1166.1 1718.04C1166.38 1717.69 1166.71 1717.41 1167.09 1717.22C1167.48 1717.03 1167.91 1716.93 1168.38 1716.93C1168.88 1716.93 1169.31 1717.02 1169.69 1717.19C1170.06 1717.36 1170.38 1717.61 1170.64 1717.95C1170.9 1718.27 1171.11 1718.67 1171.26 1719.13C1171.41 1719.6 1171.52 1720.12 1171.57 1720.71V1721.38C1171.52 1721.96 1171.42 1722.49 1171.26 1722.95C1171.11 1723.41 1170.9 1723.81 1170.64 1724.14C1170.38 1724.46 1170.06 1724.71 1169.69 1724.89C1169.31 1725.06 1168.87 1725.15 1168.37 1725.15C1167.9 1725.15 1167.48 1725.05 1167.09 1724.85C1166.71 1724.65 1166.38 1724.37 1166.1 1724C1165.83 1723.64 1165.62 1723.22 1165.47 1722.73C1165.32 1722.24 1165.25 1721.7 1165.25 1721.13ZM1166.61 1720.97V1721.13C1166.61 1721.52 1166.65 1721.89 1166.73 1722.24C1166.81 1722.59 1166.94 1722.89 1167.11 1723.15C1167.28 1723.42 1167.5 1723.63 1167.76 1723.78C1168.02 1723.92 1168.34 1724 1168.7 1724C1169.15 1724 1169.52 1723.9 1169.81 1723.71C1170.1 1723.52 1170.34 1723.27 1170.51 1722.96C1170.69 1722.64 1170.83 1722.3 1170.92 1721.94V1720.17C1170.86 1719.9 1170.78 1719.65 1170.67 1719.4C1170.56 1719.14 1170.42 1718.92 1170.24 1718.72C1170.07 1718.52 1169.86 1718.36 1169.6 1718.25C1169.36 1718.13 1169.06 1718.07 1168.72 1718.07C1168.35 1718.07 1168.03 1718.15 1167.76 1718.31C1167.5 1718.46 1167.28 1718.67 1167.11 1718.94C1166.94 1719.2 1166.81 1719.51 1166.73 1719.86C1166.65 1720.21 1166.61 1720.58 1166.61 1720.97ZM1179.18 1717.08H1180.42V1724.83C1180.42 1725.53 1180.27 1726.13 1179.99 1726.62C1179.71 1727.11 1179.31 1727.49 1178.8 1727.74C1178.3 1728 1177.72 1728.13 1177.06 1728.13C1176.79 1728.13 1176.46 1728.08 1176.09 1728C1175.73 1727.91 1175.37 1727.77 1175.01 1727.56C1174.66 1727.36 1174.36 1727.09 1174.12 1726.75L1174.83 1725.94C1175.17 1726.35 1175.51 1726.62 1175.87 1726.78C1176.24 1726.94 1176.6 1727.01 1176.96 1727.01C1177.39 1727.01 1177.76 1726.93 1178.07 1726.77C1178.38 1726.61 1178.63 1726.37 1178.8 1726.05C1178.97 1725.74 1179.06 1725.36 1179.06 1724.9V1718.82L1179.18 1717.08ZM1173.73 1721.13V1720.97C1173.73 1720.37 1173.8 1719.82 1173.94 1719.32C1174.09 1718.83 1174.29 1718.4 1174.56 1718.04C1174.84 1717.69 1175.17 1717.41 1175.55 1717.22C1175.94 1717.03 1176.37 1716.93 1176.86 1716.93C1177.35 1716.93 1177.79 1717.02 1178.16 1717.19C1178.54 1717.36 1178.85 1717.61 1179.11 1717.95C1179.38 1718.27 1179.58 1718.67 1179.73 1719.13C1179.89 1719.6 1179.99 1720.12 1180.05 1720.71V1721.38C1180 1721.96 1179.89 1722.49 1179.73 1722.95C1179.58 1723.41 1179.38 1723.81 1179.11 1724.14C1178.85 1724.46 1178.54 1724.71 1178.16 1724.89C1177.78 1725.06 1177.34 1725.15 1176.84 1725.15C1176.37 1725.15 1175.94 1725.05 1175.55 1724.85C1175.17 1724.65 1174.84 1724.37 1174.57 1724C1174.3 1723.64 1174.09 1723.22 1173.94 1722.73C1173.8 1722.24 1173.73 1721.7 1173.73 1721.13ZM1175.08 1720.97V1721.13C1175.08 1721.52 1175.12 1721.89 1175.2 1722.24C1175.28 1722.59 1175.41 1722.89 1175.57 1723.15C1175.74 1723.42 1175.96 1723.63 1176.23 1723.78C1176.49 1723.92 1176.8 1724 1177.17 1724C1177.62 1724 1177.99 1723.9 1178.28 1723.71C1178.58 1723.52 1178.81 1723.27 1178.98 1722.96C1179.16 1722.64 1179.29 1722.3 1179.39 1721.94V1720.17C1179.34 1719.9 1179.25 1719.65 1179.14 1719.4C1179.03 1719.14 1178.89 1718.92 1178.72 1718.72C1178.54 1718.52 1178.33 1718.36 1178.08 1718.25C1177.82 1718.13 1177.53 1718.07 1177.19 1718.07C1176.81 1718.07 1176.49 1718.15 1176.23 1718.31C1175.96 1718.46 1175.74 1718.67 1175.57 1718.94C1175.41 1719.2 1175.28 1719.51 1175.2 1719.86C1175.12 1720.21 1175.08 1720.58 1175.08 1720.97ZM1185.76 1725.15C1185.21 1725.15 1184.71 1725.05 1184.26 1724.87C1183.82 1724.68 1183.43 1724.41 1183.11 1724.07C1182.79 1723.73 1182.55 1723.32 1182.38 1722.85C1182.21 1722.39 1182.12 1721.87 1182.12 1721.32V1721.01C1182.12 1720.36 1182.22 1719.79 1182.41 1719.29C1182.6 1718.78 1182.86 1718.35 1183.18 1718C1183.51 1717.65 1183.88 1717.38 1184.3 1717.2C1184.71 1717.02 1185.14 1716.93 1185.59 1716.93C1186.15 1716.93 1186.64 1717.03 1187.05 1717.22C1187.47 1717.42 1187.81 1717.69 1188.07 1718.04C1188.33 1718.39 1188.53 1718.8 1188.65 1719.27C1188.78 1719.74 1188.85 1720.25 1188.85 1720.81V1721.42H1182.93V1720.31H1187.49V1720.21C1187.47 1719.86 1187.4 1719.52 1187.27 1719.18C1187.15 1718.85 1186.95 1718.58 1186.68 1718.36C1186.42 1718.15 1186.05 1718.04 1185.59 1718.04C1185.28 1718.04 1185 1718.11 1184.74 1718.24C1184.48 1718.37 1184.26 1718.56 1184.07 1718.81C1183.88 1719.06 1183.74 1719.38 1183.64 1719.74C1183.54 1720.11 1183.48 1720.53 1183.48 1721.01V1721.32C1183.48 1721.69 1183.54 1722.05 1183.64 1722.38C1183.75 1722.71 1183.9 1722.99 1184.1 1723.24C1184.3 1723.49 1184.55 1723.69 1184.84 1723.83C1185.13 1723.97 1185.46 1724.04 1185.83 1724.04C1186.31 1724.04 1186.72 1723.94 1187.05 1723.75C1187.38 1723.55 1187.67 1723.29 1187.92 1722.96L1188.74 1723.62C1188.57 1723.87 1188.35 1724.12 1188.09 1724.36C1187.83 1724.59 1187.5 1724.78 1187.12 1724.93C1186.74 1725.07 1186.28 1725.15 1185.76 1725.15Z" fill="black"/>
<rect x="1125.75" y="1675.75" width="88.5" height="88.5" stroke="#444444" stroke-width="1.5"/>
</g>
<g id="door_10">
<rect x="1125.38" y="1754.88" width="89.25" height="0.75" fill="white"/>
<rect x="1125.38" y="1754.88" width="89.25" height="0.75" stroke="#444444" stroke-width="0.75"/>
</g>
</g>
</g>
<g id="lounge/dining-table">
<g id="dining-table">
<g id="dining-table_2">
<g id="left-chair-column">
<g id="floor-plan/basic-elements_8">
<rect x="760.75" y="1732.62" width="48.75" height="58.75" rx="1.875" transform="rotate(-180 760.75 1732.62)" fill="white"/>
<rect x="760.75" y="1732.62" width="48.75" height="58.75" rx="1.875" transform="rotate(-180 760.75 1732.62)" stroke="#444444" stroke-width="1.25"/>
</g>
<g id="floor-plan/basic-elements_9">
<path d="M758.875 1732.62H713.875C712.839 1732.62 712 1731.79 712 1730.75V1721.38H760.75V1730.75C760.75 1731.79 759.911 1732.62 758.875 1732.62Z" fill="white"/>
<path d="M758.875 1732.62H713.875C712.839 1732.62 712 1731.79 712 1730.75V1721.38H760.75V1730.75C760.75 1731.79 759.911 1732.62 758.875 1732.62Z" stroke="#444444" stroke-width="1.25"/>
</g>
</g>
<g id="central-part">
<g id="chairs-top-row">
<g id="left-chair">
<g id="floor-plan/basic-elements_10">
<rect x="583.875" y="1634.5" width="48.75" height="58.75" rx="1.875" transform="rotate(-90 583.875 1634.5)" fill="white"/>
<rect x="583.875" y="1634.5" width="48.75" height="58.75" rx="1.875" transform="rotate(-90 583.875 1634.5)" stroke="#444444" stroke-width="1.25"/>
</g>
<g id="floor-plan/basic-elements_11">
<path d="M583.875 1632.62V1587.62C583.875 1586.59 584.714 1585.75 585.75 1585.75H595.125V1634.5H585.75C584.714 1634.5 583.875 1633.66 583.875 1632.62Z" fill="white"/>
<path d="M583.875 1632.62V1587.62C583.875 1586.59 584.714 1585.75 585.75 1585.75H595.125V1634.5H585.75C584.714 1634.5 583.875 1633.66 583.875 1632.62Z" stroke="#444444" stroke-width="1.25"/>
</g>
</g>
<g id="middle-chair">
<g id="floor-plan/basic-elements_12">
<rect x="583.875" y="1553.25" width="48.75" height="58.75" rx="1.875" transform="rotate(-90 583.875 1553.25)" fill="white"/>
<rect x="583.875" y="1553.25" width="48.75" height="58.75" rx="1.875" transform="rotate(-90 583.875 1553.25)" stroke="#444444" stroke-width="1.25"/>
</g>
<g id="floor-plan/basic-elements_13">
<path d="M583.875 1551.38V1506.38C583.875 1505.34 584.714 1504.5 585.75 1504.5H595.125V1553.25H585.75C584.714 1553.25 583.875 1552.41 583.875 1551.38Z" fill="white"/>
<path d="M583.875 1551.38V1506.38C583.875 1505.34 584.714 1504.5 585.75 1504.5H595.125V1553.25H585.75C584.714 1553.25 583.875 1552.41 583.875 1551.38Z" stroke="#444444" stroke-width="1.25"/>
</g>
</g>
<g id="right-chair">
<g id="floor-plan/basic-elements_14">
<rect x="583.875" y="1472" width="48.75" height="58.75" rx="1.875" transform="rotate(-90 583.875 1472)" fill="white"/>
<rect x="583.875" y="1472" width="48.75" height="58.75" rx="1.875" transform="rotate(-90 583.875 1472)" stroke="#444444" stroke-width="1.25"/>
</g>
<g id="floor-plan/basic-elements_15">
<path d="M583.875 1470.13V1425.13C583.875 1424.09 584.714 1423.25 585.75 1423.25H595.125V1472H585.75C584.714 1472 583.875 1471.16 583.875 1470.13Z" fill="white"/>
<path d="M583.875 1470.13V1425.13C583.875 1424.09 584.714 1423.25 585.75 1423.25H595.125V1472H585.75C584.714 1472 583.875 1471.16 583.875 1470.13Z" stroke="#444444" stroke-width="1.25"/>
</g>
</g>
</g>
<g id="table">
<g id="flexible-table">
<rect x="675.125" y="1641.38" width="223.75" height="123.75" transform="rotate(-90 675.125 1641.38)" fill="white"/>
<rect x="675.125" y="1641.38" width="223.75" height="123.75" transform="rotate(-90 675.125 1641.38)" stroke="#444444" stroke-width="1.25"/>
</g>
</g>
<g id="chairs-bottom-row">
<g id="left-chair_2">
<g id="floor-plan/basic-elements_16">
<rect x="890.125" y="1587" width="48.75" height="58.75" rx="1.875" transform="rotate(90 890.125 1587)" fill="white"/>
<rect x="890.125" y="1587" width="48.75" height="58.75" rx="1.875" transform="rotate(90 890.125 1587)" stroke="#444444" stroke-width="1.25"/>
</g>
<g id="floor-plan/basic-elements_17">
<path d="M890.125 1588.88V1633.88C890.125 1634.91 889.286 1635.75 888.25 1635.75H878.875V1587H888.25C889.286 1587 890.125 1587.84 890.125 1588.88Z" fill="white"/>
<path d="M890.125 1588.88V1633.88C890.125 1634.91 889.286 1635.75 888.25 1635.75H878.875V1587H888.25C889.286 1587 890.125 1587.84 890.125 1588.88Z" stroke="#444444" stroke-width="1.25"/>
</g>
</g>
<g id="middle-chair_2">
<g id="floor-plan/basic-elements_18">
<rect x="890.125" y="1505.75" width="48.75" height="58.75" rx="1.875" transform="rotate(90 890.125 1505.75)" fill="white"/>
<rect x="890.125" y="1505.75" width="48.75" height="58.75" rx="1.875" transform="rotate(90 890.125 1505.75)" stroke="#444444" stroke-width="1.25"/>
</g>
<g id="floor-plan/basic-elements_19">
<path d="M890.125 1507.63V1552.63C890.125 1553.66 889.286 1554.5 888.25 1554.5H878.875V1505.75H888.25C889.286 1505.75 890.125 1506.59 890.125 1507.63Z" fill="white"/>
<path d="M890.125 1507.63V1552.63C890.125 1553.66 889.286 1554.5 888.25 1554.5H878.875V1505.75H888.25C889.286 1505.75 890.125 1506.59 890.125 1507.63Z" stroke="#444444" stroke-width="1.25"/>
</g>
</g>
<g id="right-chair_2">
<g id="floor-plan/basic-elements_20">
<rect x="890.125" y="1424.5" width="48.75" height="58.75" rx="1.875" transform="rotate(90 890.125 1424.5)" fill="white"/>
<rect x="890.125" y="1424.5" width="48.75" height="58.75" rx="1.875" transform="rotate(90 890.125 1424.5)" stroke="#444444" stroke-width="1.25"/>
</g>
<g id="floor-plan/basic-elements_21">
<path d="M890.125 1426.38V1471.38C890.125 1472.41 889.286 1473.25 888.25 1473.25H878.875V1424.5H888.25C889.286 1424.5 890.125 1425.34 890.125 1426.38Z" fill="white"/>
<path d="M890.125 1426.38V1471.38C890.125 1472.41 889.286 1473.25 888.25 1473.25H878.875V1424.5H888.25C889.286 1424.5 890.125 1425.34 890.125 1426.38Z" stroke="#444444" stroke-width="1.25"/>
</g>
</g>
</g>
</g>
<g id="right-chair-column">
<g id="floor-plan/basic-elements_22">
<rect x="713.25" y="1326.38" width="48.75" height="58.75" rx="1.875" fill="white"/>
<rect x="713.25" y="1326.38" width="48.75" height="58.75" rx="1.875" stroke="#444444" stroke-width="1.25"/>
</g>
<g id="floor-plan/basic-elements_23">
<path d="M715.125 1326.38H760.125C761.161 1326.38 762 1327.21 762 1328.25V1337.63H713.25V1328.25C713.25 1327.21 714.089 1326.38 715.125 1326.38Z" fill="white"/>
<path d="M715.125 1326.38H760.125C761.161 1326.38 762 1327.21 762 1328.25V1337.63H713.25V1328.25C713.25 1327.21 714.089 1326.38 715.125 1326.38Z" stroke="#444444" stroke-width="1.25"/>
</g>
</g>
</g>
</g>
</g>
<g id=".templates/floor-plan/window-wall-thickness_7">
<g id=".templates/floor-plan/window-wall-thickness_8">
<rect id="background_21" x="491" y="1563" width="303" height="18" transform="rotate(-90 491 1563)" fill="white"/>
</g>
</g>
<g id=".templates/floor-plan/window-wall-thickness_9">
<g id=".templates/floor-plan/window-wall-thickness_10">
<rect id="background_22" x="490" y="726" width="300" height="17" transform="rotate(-90 490 726)" fill="white"/>
</g>
</g>
<g id=".templates/floor-plan/glass_5">
<rect id="background_23" x="491" y="1105" width="257" height="17" transform="rotate(-90 491 1105)" fill="#E3E8FF"/>
</g>
<g id=".templates/floor-plan/window-component">
<g id=".templates/floor-plan/window-elements">
<g id="window-rectangle_7">
<g id=".templates/floor-plan/window-line-template_7">
<rect width="257" height="3" transform="matrix(0 -1 -1 0 494 1105)" fill="white"/>
<rect id="window-line_19" x="-0.5" y="-0.5" width="256" height="2" transform="matrix(0 -1 -1 0 493 1104)" stroke="black"/>
</g>
</g>
</g>
<g id=".templates/floor-plan/window-elements_2">
<g id="bottom_7">
<rect id="window-line_20" x="495.25" y="1104.75" width="256.5" height="0.5" transform="rotate(-90 495.25 1104.75)" stroke="black" stroke-width="0.5" stroke-dasharray="0.3 0.5"/>
</g>
</g>
<g id=".templates/floor-plan/window-elements_3">
<rect id="window-line_21" x="497.25" y="1104.75" width="256.5" height="0.5" transform="rotate(-90 497.25 1104.75)" stroke="black" stroke-width="0.5" stroke-dasharray="5 4"/>
</g>
</g>
<g id="work-sleep/desk">
<g id="floor-plan/basic-elements_24">
<rect x="840.5" y="574.5" width="199" height="79" fill="white"/>
<rect x="840.5" y="574.5" width="199" height="79" stroke="#444444"/>
</g>
</g>
<g id="work-sleep/bed_3">
<g id="bed-template">
<g id="mattress_3">
<rect x="1715.75" y="289.75" width="148.5" height="298.5" rx="5.25" fill="white"/>
<rect x="1715.75" y="289.75" width="148.5" height="298.5" rx="5.25" stroke="#444444" stroke-width="1.5"/>
</g>
<g id="pillow-center">
<rect x="1745.75" y="313.75" width="88.5" height="82.5" rx="5.25" fill="white"/>
<rect x="1745.75" y="313.75" width="88.5" height="82.5" rx="5.25" stroke="#444444" stroke-width="1.5"/>
</g>
<g id="blanket_3">
<path d="M1715.75 349.75H1864.25V583C1864.25 585.9 1861.9 588.25 1859 588.25H1721C1718.1 588.25 1715.75 585.899 1715.75 583V349.75Z" fill="white"/>
<path d="M1715.75 349.75H1864.25V583C1864.25 585.9 1861.9 588.25 1859 588.25H1721C1718.1 588.25 1715.75 585.899 1715.75 583V349.75Z" stroke="#444444" stroke-width="1.5"/>
</g>
</g>
</g>
<g id="bathroom/toilet">
<g id=".templates/bathroom/toilet-template">
<g id="shelf">
<rect width="117.531" height="30.7865" transform="matrix(0 1 1 0 1496 1523.47)" fill="#E3E3E3"/>
</g>
<g id="right_5">
<g id="shelf_2">
<rect x="1496.37" y="1523.1" width="0.734568" height="136.265" transform="rotate(-90 1496.37 1523.1)" fill="white"/>
<rect x="1496.37" y="1523.1" width="0.734568" height="136.265" transform="rotate(-90 1496.37 1523.1)" stroke="#444444" stroke-width="0.734568"/>
</g>
<g id="shelf_3">
<rect x="1605.79" y="1537.66" width="13.6914" height="19.0112" transform="rotate(-90 1605.79 1537.66)" fill="white"/>
<rect x="1605.79" y="1537.66" width="13.6914" height="19.0112" transform="rotate(-90 1605.79 1537.66)" stroke="#444444"/>
</g>
</g>
<g id="toilet">
<g id="floor-plan/basic-elements_25">
<rect x="0.5" y="0.5" width="54.8272" height="48.2584" rx="3.5" transform="matrix(0 1 1 0 1526.79 1554.32)" fill="white"/>
<rect x="0.5" y="0.5" width="54.8272" height="48.2584" rx="3.5" transform="matrix(0 1 1 0 1526.79 1554.32)" stroke="#444444"/>
</g>
<g id="floor-plan/basic-elements_26">
<path d="M1542.68 1564.32V1600.15C1542.68 1605.39 1546.93 1609.65 1552.18 1609.65H1591.45C1602.22 1609.65 1610.95 1600.92 1610.95 1590.15V1574.32C1610.95 1563.55 1602.22 1554.82 1591.45 1554.82H1552.18C1546.93 1554.82 1542.68 1559.07 1542.68 1564.32Z" fill="white"/>
<path d="M1542.68 1564.32V1600.15C1542.68 1605.39 1546.93 1609.65 1552.18 1609.65H1591.45C1602.22 1609.65 1610.95 1600.92 1610.95 1590.15V1574.32C1610.95 1563.55 1602.22 1554.82 1591.45 1554.82H1552.18C1546.93 1554.82 1542.68 1559.07 1542.68 1564.32Z" stroke="#444444"/>
</g>
<g id="floor-plan/basic-elements_27">
<path d="M1545.76 1567.26V1597.21C1545.76 1602.46 1550.01 1606.71 1555.26 1606.71H1588.37C1599.14 1606.71 1607.87 1597.98 1607.87 1587.21V1577.26C1607.87 1566.49 1599.14 1557.76 1588.37 1557.76H1555.26C1550.01 1557.76 1545.76 1562.01 1545.76 1567.26Z" fill="white"/>
<path d="M1545.76 1567.26V1597.21C1545.76 1602.46 1550.01 1606.71 1555.26 1606.71H1588.37C1599.14 1606.71 1607.87 1597.98 1607.87 1587.21V1577.26C1607.87 1566.49 1599.14 1557.76 1588.37 1557.76H1555.26C1550.01 1557.76 1545.76 1562.01 1545.76 1567.26Z" stroke="#444444"/>
</g>
</g>
</g>
</g>
<g id="floor-plan/door_5">
<g id="door-template_5">
<g id="door-wall-thickness_5">
<g id="glass-type_5">
<rect id="background_24" width="90" height="17" transform="matrix(1 0 0 -1 1878 1247)" fill="white"/>
</g>
<rect id="door_11" x="0.5" y="-0.5" width="89" height="16" transform="matrix(1 0 0 -1 1878 1246)" stroke="black" stroke-dasharray="4 16"/>
<rect id="left_9" width="1" height="17" transform="matrix(1 0 0 -1 1878 1247)" fill="black"/>
<rect id="right_6" width="1" height="17" transform="matrix(1 0 0 -1 1967 1247)" fill="black"/>
</g>
<g id="left_10">
<g id=".templates/base/door_5" clip-path="url(#clip12_1005_24299)">
<g id="Ellipse 1_5">
<mask id="path-202-outside-5_1005_24299" maskUnits="userSpaceOnUse" x="1876.98" y="1245.98" width="91" height="91" fill="black">
<rect fill="white" x="1876.98" y="1245.98" width="91" height="91"/>
<path d="M1966.98 1247C1966.98 1258.68 1964.68 1270.25 1960.2 1281.05C1955.73 1291.85 1949.18 1301.65 1940.92 1309.92C1932.65 1318.18 1922.85 1324.73 1912.05 1329.2C1901.25 1333.68 1889.68 1335.98 1878 1335.98L1878 1247L1966.98 1247Z"/>
</mask>
<path d="M1966.98 1247C1966.98 1258.68 1964.68 1270.25 1960.2 1281.05C1955.73 1291.85 1949.18 1301.65 1940.92 1309.92C1932.65 1318.18 1922.85 1324.73 1912.05 1329.2C1901.25 1333.68 1889.68 1335.98 1878 1335.98L1878 1247L1966.98 1247Z" fill="white"/>
<path d="M1966.98 1247C1966.98 1258.68 1964.68 1270.25 1960.2 1281.05C1955.73 1291.85 1949.18 1301.65 1940.92 1309.92C1932.65 1318.18 1922.85 1324.73 1912.05 1329.2C1901.25 1333.68 1889.68 1335.98 1878 1335.98L1878 1247L1966.98 1247Z" stroke="black" stroke-width="2" mask="url(#path-202-outside-5_1005_24299)"/>
</g>
</g>
<rect id="Rectangle 2_5" width="1" height="90" transform="matrix(1 0 0 -1 1878 1337)" fill="black"/>
</g>
</g>
</g>
<g id="bathroom/bathtub">
<g id=".templates/bathroom/bathtub-template">
<g id="Frame 29">
<g id="shelf-left">
<rect width="41.5" height="126" transform="translate(1496 1637)" fill="#E3E3E3"/>
</g>
<g id=".templates/bathroom/bathtub-variants">
<g id="Frame 34">
<g id="floor-plan/basic-elements_28">
<rect x="1538.25" y="1637.75" width="253.5" height="111" rx="5.25" fill="white"/>
<rect x="1538.25" y="1637.75" width="253.5" height="111" rx="5.25" stroke="#444444" stroke-width="1.5"/>
</g>
<g id="floor-plan/basic-elements_29">
<rect x="1550.25" y="1645.25" width="229.5" height="96" rx="48" fill="white"/>
<rect x="1550.25" y="1645.25" width="229.5" height="96" rx="48" stroke="#444444" stroke-width="1.5"/>
</g>
<g id="drain_2">
<rect x="1659.75" y="1724.75" width="10.5" height="10.5" rx="5.25" fill="white"/>
<rect x="1659.75" y="1724.75" width="10.5" height="10.5" rx="5.25" stroke="#444444" stroke-width="1.5"/>
</g>
</g>
</g>
<g id="shelf-right">
<rect width="41.5" height="126" transform="translate(1792.5 1637)" fill="#E3E3E3"/>
</g>
</g>
</g>
</g>
<g id="bathroom/basin">
<g id=".templates/bathroom/basin-template">
<g id="basin">
<rect x="1501.25" y="1462.75" width="163.5" height="66" rx="2.25" transform="matrix(0 -1 1 0 38.5 2964)" fill="white"/>
<rect x="1501.25" y="1462.75" width="163.5" height="66" rx="2.25" transform="matrix(0 -1 1 0 38.5 2964)" stroke="#444444" stroke-width="1.5"/>
</g>
<g id="sink-left">
<g id="sink_2">
<rect x="1517.75" y="1454.5" width="67.5" height="43.5" rx="2.25" transform="rotate(-90 1517.75 1454.5)" fill="white"/>
<rect x="1517.75" y="1454.5" width="67.5" height="43.5" rx="2.25" transform="rotate(-90 1517.75 1454.5)" stroke="#444444" stroke-width="1.5"/>
</g>
<g id="drain_3">
<rect x="1525.25" y="1424.5" width="7.5" height="7.5" rx="3.75" transform="rotate(-90 1525.25 1424.5)" fill="white"/>
<rect x="1525.25" y="1424.5" width="7.5" height="7.5" rx="3.75" transform="rotate(-90 1525.25 1424.5)" stroke="#444444" stroke-width="1.5"/>
</g>
</g>
<g id="sink-right">
<g id="sink_3">
<rect x="1517.75" y="1375.15" width="67.5" height="43.5" rx="2.25" transform="rotate(-90 1517.75 1375.15)" fill="white"/>
<rect x="1517.75" y="1375.15" width="67.5" height="43.5" rx="2.25" transform="rotate(-90 1517.75 1375.15)" stroke="#444444" stroke-width="1.5"/>
</g>
<g id="drain_4">
<rect x="1525.25" y="1343.65" width="7.5" height="7.5" rx="3.75" transform="rotate(-90 1525.25 1343.65)" fill="white"/>
<rect x="1525.25" y="1343.65" width="7.5" height="7.5" rx="3.75" transform="rotate(-90 1525.25 1343.65)" stroke="#444444" stroke-width="1.5"/>
</g>
</g>
</g>
</g>
<g id=".templates/floor-plan/platform-template" clip-path="url(#clip13_1005_24299)">
<g id="platform">
<rect x="47.5" y="31.5" width="446" height="1980" fill="white"/>
<rect x="47.5" y="31.5" width="446" height="1980" stroke="black"/>
</g>
</g>
<g id=".templates/floor-plan/platform-template_2" clip-path="url(#clip14_1005_24299)">
<g id="platform_2">
<rect x="494.5" y="1782.5" width="2030" height="229" fill="white"/>
<rect x="494.5" y="1782.5" width="2030" height="229" stroke="black"/>
</g>
</g>
<g id=".templates/floor-plan/platform-template_3" clip-path="url(#clip15_1005_24299)">
<g id="platform_3">
<rect x="494.5" y="31.5" width="2030" height="229" fill="white"/>
<rect x="494.5" y="31.5" width="2030" height="229" stroke="black"/>
</g>
</g>
<g id="items/car">
<g id="tire-4">
<rect x="3004.5" y="770.5" width="89" height="23" rx="5.5" transform="rotate(-90 3004.5 770.5)" fill="#444444"/>
<rect x="3004.5" y="770.5" width="89" height="23" rx="5.5" transform="rotate(-90 3004.5 770.5)" stroke="#444444"/>
</g>
<g id="tire-3">
<rect x="3004.5" y="430.5" width="89" height="23" rx="5.5" transform="rotate(-90 3004.5 430.5)" fill="#444444"/>
<rect x="3004.5" y="430.5" width="89" height="23" rx="5.5" transform="rotate(-90 3004.5 430.5)" stroke="#444444"/>
</g>
<g id="tire-2">
<rect x="2768.5" y="430.5" width="89" height="23" rx="5.5" transform="rotate(-90 2768.5 430.5)" fill="#444444"/>
<rect x="2768.5" y="430.5" width="89" height="23" rx="5.5" transform="rotate(-90 2768.5 430.5)" stroke="#444444"/>
</g>
<g id="tire-1">
<rect x="2768.5" y="770.5" width="89" height="23" rx="5.5" transform="rotate(-90 2768.5 770.5)" fill="#444444"/>
<rect x="2768.5" y="770.5" width="89" height="23" rx="5.5" transform="rotate(-90 2768.5 770.5)" stroke="#444444"/>
</g>
<g id="car">
<path d="M2776.5 787V322C2776.5 300.185 2794.18 282.5 2816 282.5H2980C3001.82 282.5 3019.5 300.185 3019.5 322V787C3019.5 803.292 3006.29 816.5 2990 816.5H2806C2789.71 816.5 2776.5 803.292 2776.5 787Z" fill="white"/>
<path d="M2776.5 787V322C2776.5 300.185 2794.18 282.5 2816 282.5H2980C3001.82 282.5 3019.5 300.185 3019.5 322V787C3019.5 803.292 3006.29 816.5 2990 816.5H2806C2789.71 816.5 2776.5 803.292 2776.5 787Z" stroke="#444444"/>
</g>
</g>
<g id="items/car_2">
<g id="tire-4_2">
<rect x="3004.5" y="1636.5" width="89" height="23" rx="5.5" transform="rotate(-90 3004.5 1636.5)" fill="#444444"/>
<rect x="3004.5" y="1636.5" width="89" height="23" rx="5.5" transform="rotate(-90 3004.5 1636.5)" stroke="#444444"/>
</g>
<g id="tire-3_2">
<rect x="3004.5" y="1296.5" width="89" height="23" rx="5.5" transform="rotate(-90 3004.5 1296.5)" fill="#444444"/>
<rect x="3004.5" y="1296.5" width="89" height="23" rx="5.5" transform="rotate(-90 3004.5 1296.5)" stroke="#444444"/>
</g>
<g id="tire-2_2">
<rect x="2768.5" y="1296.5" width="89" height="23" rx="5.5" transform="rotate(-90 2768.5 1296.5)" fill="#444444"/>
<rect x="2768.5" y="1296.5" width="89" height="23" rx="5.5" transform="rotate(-90 2768.5 1296.5)" stroke="#444444"/>
</g>
<g id="tire-1_2">
<rect x="2768.5" y="1636.5" width="89" height="23" rx="5.5" transform="rotate(-90 2768.5 1636.5)" fill="#444444"/>
<rect x="2768.5" y="1636.5" width="89" height="23" rx="5.5" transform="rotate(-90 2768.5 1636.5)" stroke="#444444"/>
</g>
<g id="car_2">
<path d="M2776.5 1653V1188C2776.5 1166.18 2794.18 1148.5 2816 1148.5H2980C3001.82 1148.5 3019.5 1166.18 3019.5 1188V1653C3019.5 1669.29 3006.29 1682.5 2990 1682.5H2806C2789.71 1682.5 2776.5 1669.29 2776.5 1653Z" fill="white"/>
<path d="M2776.5 1653V1188C2776.5 1166.18 2794.18 1148.5 2816 1148.5H2980C3001.82 1148.5 3019.5 1166.18 3019.5 1188V1653C3019.5 1669.29 3006.29 1682.5 2990 1682.5H2806C2789.71 1682.5 2776.5 1669.29 2776.5 1653Z" stroke="#444444"/>
</g>
</g>
<g id=".templates/floor-plan/window-component_2">
<g id=".templates/floor-plan/window-component_3">
<g id=".templates/floor-plan/window-elements_4">
<g id=".templates/floor-plan/arrow-left-right">
<g id="arrow_8">
<mask maskUnits="userSpaceOnUse" x="0" y="0" width="0" height="0" fill="black">
<rect fill="white" width="0" height="0"/>
</mask>
<path d="M475.273 1441.79L479.647 1434.21H470.899L475.273 1441.79ZM475.273 1381.18L470.899 1388.76H479.647L475.273 1381.18ZM476.03 1434.97V1388H474.515V1434.97H476.03Z" fill="black" mask="url(#)"/>
</g>
</g>
<g id="sliding-door">
<g id=".templates/floor-plan/window-line-template_8">
<rect width="163.636" height="9.09091" transform="matrix(0 -1 -1 0 491.939 1563)" fill="white"/>
<rect id="window-line_22" x="-1.51515" y="-1.51515" width="160.606" height="6.06061" transform="matrix(0 -1 -1 0 488.909 1559.97)" stroke="black" stroke-width="3.0303"/>
</g>
<g id=".templates/floor-plan/window-line-template_9">
<rect width="163.636" height="9.09091" transform="matrix(0 -1 -1 0 501.03 1423.61)" fill="white"/>
<rect id="window-line_23" x="-1.51515" y="-1.51515" width="160.606" height="6.06061" transform="matrix(0 -1 -1 0 498 1420.58)" stroke="black" stroke-width="3.0303"/>
</g>
</g>
</g>
<g id=".templates/floor-plan/window-elements_5">
<g id="bottom_8">
<rect id="window-line_24" x="504.818" y="1562.24" width="301.515" height="1.51515" transform="rotate(-90 504.818 1562.24)" stroke="black" stroke-width="1.51515" stroke-dasharray="0.91 1.52"/>
</g>
</g>
<g id=".templates/floor-plan/window-elements_6">
<rect id="window-line_25" x="510.879" y="1562.24" width="301.515" height="1.51515" transform="rotate(-90 510.879 1562.24)" stroke="black" stroke-width="1.51515" stroke-dasharray="15.15 12.12"/>
</g>
</g>
</g>
<g id=".templates/floor-plan/window-component_4">
<g id=".templates/floor-plan/window-component_5">
<g id=".templates/floor-plan/window-elements_7">
<g id=".templates/floor-plan/arrow-left-right_2">
<g id="arrow_9">
<mask maskUnits="userSpaceOnUse" x="0" y="0" width="0" height="0" fill="black">
<rect fill="white" width="0" height="0"/>
</mask>
<path d="M476.273 604.788L480.647 597.212H471.899L476.273 604.788ZM476.273 544.182L471.899 551.758H480.647L476.273 544.182ZM477.03 597.97V551H475.515V597.97H477.03Z" fill="black" mask="url(#)"/>
</g>
</g>
<g id="sliding-door_2">
<g id=".templates/floor-plan/window-line-template_10">
<rect width="163.636" height="9.09091" transform="matrix(0 -1 -1 0 492.939 726)" fill="white"/>
<rect id="window-line_26" x="-1.51515" y="-1.51515" width="160.606" height="6.06061" transform="matrix(0 -1 -1 0 489.909 722.97)" stroke="black" stroke-width="3.0303"/>
</g>
<g id=".templates/floor-plan/window-line-template_11">
<rect width="163.636" height="9.09091" transform="matrix(0 -1 -1 0 502.03 586.606)" fill="white"/>
<rect id="window-line_27" x="-1.51515" y="-1.51515" width="160.606" height="6.06061" transform="matrix(0 -1 -1 0 499 583.576)" stroke="black" stroke-width="3.0303"/>
</g>
</g>
</g>
<g id=".templates/floor-plan/window-elements_8">
<g id="bottom_9">
<rect id="window-line_28" x="505.818" y="725.242" width="301.515" height="1.51515" transform="rotate(-90 505.818 725.242)" stroke="black" stroke-width="1.51515" stroke-dasharray="0.91 1.52"/>
</g>
</g>
<g id=".templates/floor-plan/window-elements_9">
<rect id="window-line_29" x="511.879" y="725.242" width="301.515" height="1.51515" transform="rotate(-90 511.879 725.242)" stroke="black" stroke-width="1.51515" stroke-dasharray="15.15 12.12"/>
</g>
</g>
</g>
</g>
<defs>
<clipPath id="clip0_1005_24299">
<rect width="90" height="90" fill="white" transform="translate(1718 1338) rotate(-90)"/>
</clipPath>
<clipPath id="clip1_1005_24299">
<rect width="90" height="90" fill="white" transform="translate(1824 933) rotate(90)"/>
</clipPath>
<clipPath id="clip2_1005_24299">
<rect width="3" height="7" fill="white" transform="translate(680 261)"/>
</clipPath>
<clipPath id="clip3_1005_24299">
<rect width="3" height="7" fill="white" transform="translate(1203 260)"/>
</clipPath>
<clipPath id="clip4_1005_24299">
<rect width="3" height="7" fill="white" transform="translate(2102 261)"/>
</clipPath>
<clipPath id="clip5_1005_24299">
<rect width="3" height="7" fill="white" transform="matrix(0 1 -1 0 2527 610)"/>
</clipPath>
<clipPath id="clip6_1005_24299">
<rect width="3" height="7" fill="white" transform="matrix(0 1 -1 0 2525 1482)"/>
</clipPath>
<clipPath id="clip7_1005_24299">
<rect width="3" height="7" fill="white" transform="matrix(1 0 0 -1 1316 1782)"/>
</clipPath>
<clipPath id="clip8_1005_24299">
<rect width="184" height="642.405" fill="white" transform="translate(1494 381)"/>
</clipPath>
<clipPath id="clip9_1005_24299">
<rect width="30.75" height="71.75" fill="white" transform="translate(1567 926)"/>
</clipPath>
<clipPath id="clip10_1005_24299">
<rect width="90" height="90" fill="white" transform="translate(1347 366) rotate(-90)"/>
</clipPath>
<clipPath id="clip11_1005_24299">
<rect width="90" height="90" fill="white" transform="matrix(-4.37114e-08 1 1 4.37114e-08 1009 1675)"/>
</clipPath>
<clipPath id="clip12_1005_24299">
<rect width="90" height="90" fill="white" transform="matrix(4.37114e-08 -1 -1 -4.37114e-08 1968 1337)"/>
</clipPath>
<clipPath id="clip13_1005_24299">
<rect width="447" height="1981" fill="white" transform="translate(47 31)"/>
</clipPath>
<clipPath id="clip14_1005_24299">
<rect width="2031" height="230" fill="white" transform="translate(494 1782)"/>
</clipPath>
<clipPath id="clip15_1005_24299">
<rect width="2031" height="230" fill="white" transform="translate(494 31)"/>
</clipPath>
</defs>
</svg>
